<?xml version="1.0" standalone="no"?>
<!DOCTYPE svg PUBLIC "-//W3C//DTD SVG 20010904//EN"
 "http://www.w3.org/TR/2001/REC-SVG-20010904/DTD/svg10.dtd">
<svg version="1.0" xmlns="http://www.w3.org/2000/svg"
 width="500.000000pt" height="500.000000pt" viewBox="0 0 500.000000 500.000000"
 preserveAspectRatio="xMidYMid meet">
<metadata>
Created by potrace 1.14, written by Peter Selinger 2001-2017
</metadata>
<g transform="translate(0.000000,500.000000) scale(0.100000,-0.100000)"
fill="#000000" stroke="none">
<path d="M2389 4648 c-198 -18 -368 -98 -460 -217 -71 -91 -78 -134 -33 -216
38 -68 169 -195 289 -280 l98 -69 -41 -14 c-40 -13 -59 -39 -63 -87 -3 -35 0
-42 34 -75 111 -109 478 -200 628 -156 55 15 56 15 130 -13 41 -15 111 -40
157 -55 75 -25 84 -31 97 -62 8 -20 24 -49 36 -66 l22 -31 -29 6 c-16 4 -58
12 -92 19 -51 9 -66 16 -73 34 -20 54 -120 84 -284 85 -118 0 -207 -11 -295
-37 -75 -22 -147 -60 -160 -83 -16 -32 -12 -96 8 -114 40 -36 132 -58 257 -61
45 -1 54 -6 99 -49 44 -43 151 -113 200 -131 10 -3 17 -8 15 -10 -2 -2 -63 -6
-135 -9 -128 -6 -134 -5 -220 24 -111 38 -167 46 -199 29 -18 -10 -28 -10 -38
-2 -23 19 -128 42 -194 42 -109 0 -157 -31 -177 -114 -8 -31 9 -86 26 -86 5 0
8 -5 6 -11 -2 -6 -50 -28 -107 -50 -178 -67 -281 -133 -318 -202 -10 -21 -13
-47 -9 -92 6 -77 24 -121 65 -159 17 -17 31 -32 31 -36 0 -3 -16 -4 -35 -2
-19 2 -43 1 -52 -3 -10 -5 -27 -9 -38 -10 -64 -6 -86 -54 -36 -80 74 -38 296
-44 391 -10 33 12 51 13 82 4 22 -6 47 -8 55 -5 8 3 23 1 33 -4 19 -10 81 -22
113 -22 31 1 18 -14 -15 -16 -44 -2 -196 -81 -220 -113 -45 -60 9 -109 119
-109 60 0 225 24 243 35 14 9 12 -17 -4 -38 -12 -15 -28 -17 -122 -14 -117 3
-215 -6 -277 -28 -35 -12 -44 -12 -68 1 -177 91 -473 164 -666 165 -128 0
-199 -15 -220 -48 -24 -36 -23 -106 2 -133 63 -70 259 -156 505 -222 31 -8 39
-13 25 -16 -22 -4 -65 -40 -65 -54 0 -5 19 -8 42 -6 33 2 43 -1 46 -13 4 -21
-44 -35 -64 -18 -12 10 -16 8 -21 -10 -4 -14 -11 -20 -21 -16 -10 4 -13 0 -10
-13 3 -11 1 -27 -4 -36 -7 -12 -5 -16 7 -16 8 0 15 -6 15 -14 0 -11 10 -13 39
-9 44 6 62 -10 38 -34 -13 -14 -20 -14 -47 -3 -39 16 -45 9 -26 -28 19 -37 76
-49 128 -27 26 10 38 11 46 3 20 -20 13 -39 -18 -49 -16 -6 -27 -15 -24 -20 3
-6 11 -5 20 2 10 8 22 8 44 1 19 -7 32 -7 36 -1 3 5 20 7 37 4 18 -3 47 -7 64
-9 21 -2 43 -15 63 -36 36 -38 38 -53 8 -67 -35 -16 -127 -102 -143 -134 -29
-54 -10 -157 46 -256 105 -185 433 -276 822 -229 575 70 963 244 1137 509 56
85 78 159 75 249 -4 84 -18 119 -64 161 -17 15 -31 32 -31 37 0 6 -14 10 -30
10 -23 0 -33 6 -42 25 -8 19 -19 25 -43 25 -19 0 -39 8 -49 19 -10 11 -24 17
-32 14 -8 -3 -21 0 -28 6 -11 9 -16 9 -21 0 -11 -17 -23 8 -20 43 2 29 12 36
201 132 279 142 375 209 346 238 -12 12 -278 13 -450 3 l-111 -7 -11 41 c-21
81 -95 105 -315 104 -122 -1 -248 -15 -355 -40 -25 -6 -25 -6 -6 15 11 13 16
30 13 42 -3 11 -2 21 1 21 4 1 18 3 32 5 57 7 308 53 345 63 22 6 55 11 73 11
17 0 32 4 32 9 0 10 95 51 119 51 9 0 25 7 35 15 11 8 26 15 33 15 7 0 31 11
53 25 22 14 45 25 51 25 7 0 30 15 53 33 23 19 56 42 74 53 18 10 35 29 38 41
4 13 12 23 18 23 48 0 47 199 0 249 -11 12 -6 18 38 40 42 21 54 33 65 66 7
22 28 54 45 72 35 36 39 68 14 127 -22 52 -82 140 -137 201 l-49 52 61 12 c85
17 117 48 139 137 94 383 -290 851 -865 1054 -192 67 -395 95 -576 78z m-560
-2413 c41 -9 40 -25 -1 -26 -190 -8 -280 -1 -302 21 -18 18 9 31 90 44 75 12
82 11 130 -10 29 -12 66 -25 83 -29z m758 -60 c70 13 37 -27 -65 -79 -49 -25
-146 -66 -167 -70 -5 -2 -29 -8 -53 -15 -23 -6 -47 -9 -52 -6 -6 3 -10 2 -10
-3 0 -10 -8 -11 -130 -12 -104 0 -124 8 -95 40 47 52 302 144 379 138 22 -2
57 2 76 8 23 8 42 9 60 2 13 -5 39 -7 57 -3z m323 -139 c-79 -40 -123 -56
-240 -86 -25 -6 -61 -15 -80 -20 -53 -13 -180 -27 -180 -20 0 22 110 83 194
107 95 28 271 60 331 61 l60 1 -85 -43z m315 20 c42 -18 48 -41 8 -31 -30 7
-76 45 -55 45 7 0 28 -7 47 -14z m-1929 -86 c113 -12 264 -50 369 -91 108 -43
110 -45 80 -81 -14 -16 -25 -40 -25 -53 0 -18 -7 -24 -32 -30 -37 -7 -136 -7
-171 1 -12 3 -31 7 -42 9 -37 6 -150 36 -180 48 -16 6 -32 12 -35 12 -17 2
-158 81 -191 107 -46 37 -49 52 -11 66 57 23 120 26 238 12z"/>
<path d="M1559 3808 c-19 -15 -46 -76 -43 -95 1 -7 2 -18 3 -23 3 -23 89 -103
158 -147 l74 -47 -73 -17 c-100 -24 -169 -55 -175 -79 -4 -13 -17 -21 -42 -26
-133 -22 -266 -104 -291 -178 -9 -27 -7 -43 7 -82 25 -67 67 -88 183 -90 327
-6 820 195 820 334 0 12 6 22 13 22 18 0 51 38 66 76 10 27 10 37 -3 61 -42
83 -226 200 -416 265 -100 34 -253 48 -281 26z"/>
</g>
</svg>
