<?xml version="1.0" encoding="utf-8"?>
<!-- Generator: Adobe Illustrator 27.5.0, SVG Export Plug-In . SVG Version: 6.00 Build 0)  -->
<svg version="1.1" xmlns="http://www.w3.org/2000/svg" xmlns:xlink="http://www.w3.org/1999/xlink" x="0px" y="0px"
	 viewBox="0 0 500 500" style="enable-background:new 0 0 500 500;" xml:space="preserve">
<g id="Background_Complete">
	<g>
		<g>
			<g>
				<rect x="71.979" y="67.911" style="fill:#EBEBEB;" width="77.48" height="20.497"/>
			</g>
		</g>
		<g>
			<g>
				<g>
					<path style="fill:#E0E0E0;" d="M116.697,109.998c-0.008-0.008-0.016-0.134-0.024-0.372c-0.007-0.274-0.015-0.62-0.025-1.051
						c-0.014-0.965-0.033-2.31-0.058-4.034c-0.031-3.538-0.076-8.626-0.133-15.039l0.24,0.24
						c-17.691,0.035-45.826,0.092-77.475,0.155c0.174-0.176-0.398,0.394,0.39-0.394v0.005v0.01v0.021v0.041v0.082v0.165v0.33
						l0,0.659v1.314c0,0.874,0,1.746,0,2.615c0,1.737-0.001,3.462-0.002,5.173c-0.002,3.421-0.004,6.786-0.007,10.082l-0.386-0.386
						c22.063,0.07,41.368,0.131,55.215,0.176c6.897,0.046,12.432,0.084,16.298,0.11c1.88,0.022,3.353,0.038,4.407,0.051
						c0.474,0.01,0.854,0.019,1.153,0.025C116.551,109.982,116.688,109.99,116.697,109.998c0.008,0.008-0.113,0.017-0.359,0.025
						c-0.286,0.006-0.65,0.015-1.105,0.025c-1.034,0.012-2.479,0.029-4.324,0.051c-3.845,0.026-9.349,0.063-16.209,0.11
						c-13.914,0.044-33.313,0.105-55.484,0.175l-0.386,0.001l0-0.387c-0.002-3.296-0.004-6.661-0.007-10.082
						c0-1.711-0.001-3.435-0.002-5.173c0-0.868,0-1.74,0-2.615l0-1.314v-0.659v-0.33v-0.165v-0.082v-0.041v-0.021v-0.01v-0.005
						c0.79-0.79,0.222-0.219,0.4-0.395c31.649,0.063,59.784,0.119,77.475,0.155l0.242,0l-0.002,0.24
						c-0.057,6.475-0.102,11.61-0.133,15.182c-0.025,1.701-0.044,3.028-0.058,3.98c-0.01,0.414-0.019,0.746-0.025,1.009
						C116.713,109.897,116.705,110.007,116.697,109.998z"/>
				</g>
			</g>
		</g>
	</g>
	<g>
		<g>
			<g>
				<rect x="383.346" y="353.028" style="fill:#EBEBEB;" width="77.48" height="20.497"/>
			</g>
		</g>
		<g>
			<g>
				<g>
					<path style="fill:#E0E0E0;" d="M428.064,395.115c-0.008-0.008-0.016-0.134-0.024-0.372c-0.007-0.274-0.015-0.62-0.025-1.051
						c-0.014-0.965-0.033-2.31-0.058-4.034c-0.031-3.538-0.076-8.626-0.133-15.039l0.24,0.24
						c-17.691,0.035-45.826,0.092-77.475,0.155c0.174-0.176-0.398,0.394,0.39-0.394v0.005v0.01v0.021v0.041v0.082v0.165v0.33
						l0,0.659v1.314c0,0.874,0,1.746-0.001,2.615c0,1.737-0.001,3.462-0.002,5.173c-0.002,3.421-0.004,6.786-0.007,10.082
						l-0.386-0.386c22.063,0.07,41.368,0.131,55.215,0.176c6.897,0.047,12.432,0.084,16.297,0.11
						c1.88,0.022,3.353,0.039,4.407,0.051c0.475,0.01,0.854,0.019,1.153,0.025C427.917,395.098,428.055,395.106,428.064,395.115
						c0.008,0.008-0.113,0.017-0.359,0.025c-0.286,0.006-0.65,0.014-1.105,0.025c-1.034,0.012-2.479,0.029-4.324,0.051
						c-3.845,0.026-9.349,0.063-16.209,0.11c-13.914,0.044-33.313,0.105-55.484,0.176l-0.386,0.001l0-0.387
						c-0.002-3.296-0.004-6.661-0.007-10.082c0-1.711-0.001-3.435-0.002-5.173c0-0.869,0-1.74,0-2.615l0-1.314v-0.659v-0.33v-0.165
						v-0.082v-0.041v-0.021v-0.01v-0.005c0.79-0.79,0.222-0.219,0.4-0.395c31.65,0.063,59.784,0.119,77.475,0.155l0.242,0.001
						l-0.002,0.24c-0.057,6.475-0.102,11.61-0.133,15.182c-0.025,1.701-0.044,3.028-0.058,3.98c-0.01,0.414-0.018,0.746-0.025,1.009
						C428.08,395.013,428.072,395.123,428.064,395.115z"/>
				</g>
			</g>
		</g>
	</g>
	<g>
		<g>
			<g>
				<rect x="71.979" y="200.572" style="fill:#EBEBEB;" width="77.48" height="20.497"/>
			</g>
		</g>
	</g>
	<g>
		<g>
			<g>
				<rect x="383.421" y="231.054" style="fill:#EBEBEB;" width="77.48" height="20.497"/>
			</g>
		</g>
	</g>
	<g>
		<g>
			<g>
				<g>
					<path style="fill:#E0E0E0;" d="M450.428,112.737c-0.008-0.008-0.016-0.134-0.024-0.372c-0.007-0.275-0.015-0.62-0.025-1.052
						c-0.014-0.964-0.033-2.309-0.058-4.034c-0.031-3.538-0.076-8.625-0.133-15.039l0.24,0.24
						c-17.691,0.035-45.826,0.091-77.475,0.155c0.174-0.176-0.398,0.394,0.39-0.394v0.005v0.01v0.021v0.041V92.4v0.165l0,0.33v0.659
						v1.314c0,0.875,0,1.746-0.001,2.615c-0.001,1.737-0.001,3.462-0.002,5.173c-0.002,3.421-0.004,6.786-0.007,10.082l-0.386-0.386
						c22.063,0.07,41.368,0.132,55.215,0.175c6.897,0.047,12.431,0.084,16.297,0.11c1.88,0.022,3.353,0.039,4.407,0.051
						c0.474,0.01,0.854,0.018,1.153,0.025C450.282,112.72,450.42,112.729,450.428,112.737c0.008,0.008-0.113,0.017-0.359,0.025
						c-0.287,0.006-0.65,0.014-1.105,0.025c-1.034,0.012-2.479,0.029-4.324,0.051c-3.845,0.026-9.349,0.063-16.208,0.11
						c-13.914,0.044-33.313,0.105-55.484,0.176l-0.386,0.001l0-0.388c-0.002-3.296-0.004-6.661-0.007-10.082
						c-0.001-1.711-0.001-3.435-0.002-5.173c0-0.868,0-1.74,0-2.615l0-1.314v-0.659v-0.33V92.4v-0.083v-0.041v-0.021v-0.01V92.24
						c0.79-0.79,0.222-0.219,0.4-0.395c31.65,0.063,59.784,0.119,77.475,0.155L450.67,92l-0.002,0.24
						c-0.057,6.475-0.102,11.61-0.133,15.182c-0.025,1.701-0.044,3.028-0.058,3.98c-0.01,0.414-0.019,0.746-0.025,1.009
						C450.444,112.635,450.436,112.745,450.428,112.737z"/>
				</g>
			</g>
		</g>
		<g>
			<g>
				<g>
					<path style="fill:#E0E0E0;" d="M460.934,92.24c-0.01-0.01-0.02-0.142-0.03-0.39c-0.008-0.294-0.019-0.651-0.031-1.086
						c-0.017-1.009-0.041-2.38-0.071-4.11c-0.037-3.594-0.089-8.67-0.153-14.911l0.284,0.284
						c-12.06,0.029-28.467,0.068-46.549,0.111c-0.355,0.353,0.477-0.481,0.392-0.393v0.005v0.011v0.021v0.042v0.084v0.169l0,0.337
						v0.672l0,1.34c0,0.891-0.001,1.777-0.001,2.658c-0.001,1.762-0.002,3.502-0.004,5.217c-0.005,3.428-0.01,6.753-0.014,9.938
						l-0.375-0.376c13.439,0.072,25.009,0.134,33.301,0.178c4.09,0.044,7.368,0.079,9.701,0.104c1.09,0.02,1.957,0.035,2.616,0.047
						C460.598,92.209,460.918,92.224,460.934,92.24c0.016,0.016-0.274,0.031-0.845,0.046c-0.639,0.012-1.481,0.027-2.538,0.047
						c-2.312,0.025-5.561,0.06-9.615,0.104c-8.355,0.044-20.013,0.106-33.555,0.179l-0.376,0.002l-0.001-0.378
						c-0.004-3.185-0.009-6.51-0.014-9.938c-0.001-1.715-0.002-3.456-0.004-5.217c0-0.881-0.001-1.767-0.001-2.658l0-1.34v-0.672
						v-0.337v-0.169v-0.084v-0.042V71.76V71.75v-0.005c-0.086,0.083,0.749-0.75,0.398-0.397c18.083,0.043,34.489,0.082,46.549,0.111
						l0.287,0.001l-0.003,0.283c-0.064,6.314-0.116,11.448-0.153,15.084c-0.03,1.703-0.053,3.053-0.071,4.046
						C460.972,91.789,460.953,92.259,460.934,92.24z"/>
				</g>
			</g>
		</g>
	</g>
	<g>
		<g>
			<g>
				<g>
					<path style="fill:#E0E0E0;" d="M199.607,424.142c-0.008-0.008-0.016-0.134-0.024-0.372c-0.007-0.275-0.015-0.62-0.025-1.052
						c-0.014-0.964-0.033-2.31-0.058-4.034c-0.031-3.538-0.076-8.626-0.133-15.039l0.24,0.24
						c-17.691,0.035-45.826,0.091-77.475,0.155c0.174-0.176-0.398,0.394,0.39-0.394v0.005v0.01v0.021v0.041v0.083v0.165l0,0.33
						v0.659v1.314c0,0.875,0,1.746,0,2.615c-0.001,1.737-0.001,3.462-0.002,5.173c-0.002,3.421-0.004,6.786-0.007,10.082
						l-0.386-0.386c22.063,0.07,41.368,0.132,55.215,0.176c6.897,0.047,12.432,0.084,16.298,0.11
						c1.88,0.022,3.353,0.039,4.407,0.051c0.474,0.01,0.854,0.018,1.153,0.025C199.461,424.125,199.598,424.133,199.607,424.142
						c0.008,0.008-0.113,0.017-0.359,0.025c-0.287,0.006-0.65,0.015-1.105,0.025c-1.034,0.012-2.479,0.029-4.324,0.051
						c-3.845,0.026-9.349,0.064-16.208,0.11c-13.914,0.044-33.313,0.105-55.484,0.176l-0.386,0.001l0-0.388
						c-0.002-3.296-0.004-6.661-0.007-10.082c0-1.711-0.001-3.435-0.002-5.173c0-0.868,0-1.74,0-2.615l0-1.314v-0.659v-0.33v-0.165
						v-0.083v-0.041v-0.021v-0.01v-0.005c0.79-0.79,0.222-0.219,0.4-0.395c31.65,0.063,59.784,0.119,77.475,0.155l0.242,0
						l-0.002,0.24c-0.057,6.475-0.102,11.61-0.133,15.182c-0.025,1.701-0.044,3.028-0.058,3.98c-0.01,0.414-0.019,0.746-0.025,1.01
						C199.623,424.04,199.615,424.15,199.607,424.142z"/>
				</g>
			</g>
		</g>
		<g>
			<g>
				<g>
					<path style="fill:#E0E0E0;" d="M210.112,403.644c-0.01-0.01-0.02-0.142-0.03-0.39c-0.008-0.294-0.018-0.651-0.031-1.086
						c-0.017-1.009-0.041-2.38-0.071-4.11c-0.037-3.594-0.089-8.67-0.153-14.911l0.284,0.284
						c-12.06,0.029-28.467,0.068-46.549,0.111c-0.355,0.353,0.477-0.481,0.392-0.393v0.005v0.011v0.021v0.042v0.084v0.169l0,0.337
						v0.672l0,1.34c0,0.891-0.001,1.777-0.001,2.658c-0.001,1.762-0.002,3.502-0.003,5.217c-0.005,3.429-0.01,6.753-0.014,9.938
						l-0.376-0.376c13.439,0.072,25.009,0.134,33.301,0.178c4.09,0.044,7.368,0.079,9.701,0.104c1.09,0.019,1.957,0.035,2.616,0.047
						C209.777,403.614,210.096,403.629,210.112,403.644c0.016,0.016-0.274,0.031-0.845,0.046c-0.639,0.012-1.481,0.027-2.538,0.047
						c-2.313,0.025-5.561,0.06-9.615,0.104c-8.355,0.044-20.013,0.106-33.555,0.179l-0.375,0.002l-0.001-0.378
						c-0.004-3.185-0.009-6.51-0.014-9.938c-0.001-1.715-0.002-3.455-0.004-5.217c0-0.881-0.001-1.767-0.001-2.658l0-1.34v-0.672
						v-0.337v-0.169v-0.084v-0.042v-0.021v-0.011v-0.005c-0.087,0.083,0.749-0.75,0.398-0.397
						c18.083,0.043,34.489,0.082,46.549,0.111l0.287,0.001l-0.003,0.283c-0.064,6.314-0.116,11.448-0.153,15.084
						c-0.03,1.703-0.053,3.053-0.071,4.046C210.151,403.194,210.132,403.664,210.112,403.644z"/>
				</g>
			</g>
		</g>
	</g>
	<g>
		<g>
			<g>
				<g>
					<path style="fill:#E0E0E0;" d="M338.371,210.434c-0.008-0.008-0.016-0.134-0.024-0.372c-0.007-0.275-0.015-0.62-0.025-1.051
						c-0.014-0.964-0.034-2.309-0.058-4.034c-0.031-3.538-0.076-8.626-0.133-15.039l0.24,0.24
						c-17.691,0.035-45.826,0.091-77.475,0.155c0.175-0.176-0.398,0.394,0.39-0.394v0.005v0.01v0.021v0.041v0.082v0.165l0,0.33
						v0.659v1.314c0,0.875,0,1.746,0,2.615c-0.001,1.737-0.001,3.462-0.002,5.173c-0.002,3.421-0.004,6.786-0.007,10.082
						l-0.386-0.386c22.063,0.07,41.368,0.132,55.215,0.176c6.897,0.047,12.431,0.084,16.297,0.11
						c1.88,0.022,3.353,0.039,4.407,0.051c0.474,0.01,0.854,0.018,1.153,0.025C338.225,210.417,338.363,210.425,338.371,210.434
						c0.008,0.008-0.113,0.017-0.359,0.025c-0.287,0.006-0.65,0.014-1.105,0.025c-1.034,0.012-2.479,0.029-4.324,0.051
						c-3.845,0.026-9.349,0.063-16.209,0.11c-13.914,0.044-33.313,0.105-55.484,0.176l-0.386,0.001l0-0.388
						c-0.002-3.296-0.004-6.661-0.007-10.082c-0.001-1.711-0.001-3.435-0.002-5.173c0-0.868,0-1.74,0-2.615l0-1.314v-0.659v-0.33
						v-0.165v-0.082v-0.041v-0.021v-0.01v-0.005c0.79-0.79,0.222-0.219,0.4-0.395c31.65,0.063,59.784,0.119,77.475,0.155
						l0.242,0.001l-0.002,0.24c-0.057,6.475-0.102,11.61-0.133,15.182c-0.025,1.701-0.044,3.028-0.058,3.98
						c-0.01,0.414-0.019,0.746-0.025,1.01C338.387,210.332,338.379,210.442,338.371,210.434z"/>
				</g>
			</g>
		</g>
	</g>
</g>
<g id="Background_Simple" style="display:none;">
	<path style="display:inline;fill:#F5F5F5;" d="M80.934,170.063l1.542-3.56c12.996-30.009,41.087-50.887,73.404-53.269
		c4.154-0.306,8.332-0.313,12.497-0.004c29.988,2.227,58.365,20.768,72.753,47.534c8.462,15.742,12.817,34.607,26.354,46.164
		c17.618,15.04,43.6,12.013,66.28,8.169c22.68-3.844,48.688-6.806,66.241,8.312c10.993,9.468,16.125,24.377,17.344,38.915
		c3.227,38.489-18.697,76.318-50.22,97.959c-31.524,21.641-71.181,28.648-109.268,26.277
		c-53.354-3.322-106.679-25.267-142.462-65.573C79.615,280.681,63.784,221.24,80.934,170.063z"/>
</g>
<g id="Table">
	<g>
		<path style="fill:#263238;" d="M455.661,446.543c0,0.144-91.26,0.26-203.808,0.26c-112.587,0-203.827-0.117-203.827-0.26
			c0-0.144,91.24-0.26,203.827-0.26C364.401,446.283,455.661,446.4,455.661,446.543z"/>
	</g>
</g>
<g id="Character">
	<g>
		<g>
			<path style="fill:#AE7461;" d="M189.056,249.036l47.863-8.076l43.556-1.607l52.831,17.407l-27.08,55.98h-64.221
				c0,0-43.786-39.262-43.447-40.278C198.896,271.447,189.056,249.036,189.056,249.036z"/>
			<path style="fill:#455A64;" d="M91.736,327.828c-1.072,0.637-3.595,14.1-8.148,34.225C80.33,376.45,72.79,410.948,99.32,419.641
				c18.969,6.215,29.739-10.03,40.628-24.294c10.764-14.101,27.715-42.253,27.715-42.253l11.748-104.058
				c0,0-16.877,1.126-26.254,17.675s-28.812,68.122-28.812,68.122L91.736,327.828z"/>
			<path style="fill:#455A64;" d="M330.247,368.716c3.702-18.047,17.354-109.851,17.354-109.851l-49.577-15.548
				c0,0-18.504,41.101-43.058,39.747c-29.343-1.619-42.025-38.082-42.025-38.082l-33.529,4.054c0,0-14.487,44.908-16.321,69.397
				c-1.834,24.488,15.395,85.314,16.321,91.792c0.571,3.999-3.573,22.433-5.874,36.318h160.246
				c-0.103-0.724-8.969-29.571-8.969-29.571S326.545,386.764,330.247,368.716z"/>
			<path style="fill:#455A64;" d="M347.601,258.865c0,0,14.16,7.648,18.676,36.554s11.376,111.869,11.376,111.869l8.575,39.255
				l-39.833-0.28l-8.573-24.188l-14.699-70.682L347.601,258.865z"/>
			<g>
				<path style="fill:#263238;" d="M163.021,295.499c0.009,0.001,0.009,0.101,0,0.295c-0.013,0.223-0.03,0.505-0.051,0.857
					c-0.059,0.789-0.142,1.888-0.248,3.286c-0.092,1.427-0.045,3.182-0.083,5.213c-0.034,2.032,0.145,4.346,0.22,6.902
					c0.53,10.227,2.318,24.281,4.846,39.702c2.589,15.42,5.363,29.304,7.495,39.325c1.083,4.978,1.962,9.019,2.58,11.857
					c0.304,1.37,0.543,2.448,0.714,3.221c0.071,0.346,0.128,0.623,0.173,0.841c0.036,0.19,0.05,0.289,0.042,0.291
					c-0.009,0.002-0.04-0.092-0.093-0.278c-0.058-0.215-0.131-0.488-0.223-0.829c-0.194-0.768-0.465-1.838-0.81-3.199
					c-0.679-2.784-1.63-6.822-2.742-11.825c-2.226-10.005-5.059-23.886-7.649-39.318c-2.53-15.434-4.263-29.514-4.7-39.769
					c-0.051-2.565-0.205-4.882-0.143-6.921c0.066-2.037,0.049-3.795,0.172-5.224c0.147-1.398,0.263-2.498,0.346-3.287
					c0.042-0.35,0.076-0.631,0.103-0.852C162.994,295.595,163.012,295.498,163.021,295.499z"/>
			</g>
			<g>
				<path style="fill:#263238;" d="M340.212,298.509c0.009,0.001,0.008,0.103-0.001,0.302c-0.014,0.228-0.033,0.519-0.055,0.883
					c-0.063,0.812-0.152,1.947-0.264,3.392c-0.105,1.474-0.301,3.27-0.527,5.357c-0.21,2.088-0.496,4.46-0.841,7.079
					c-1.313,10.485-3.715,24.882-6.498,40.751c-2.794,15.874-5.206,30.259-6.674,40.715c-0.395,2.61-0.679,4.98-0.962,7.058
					c-0.288,2.077-0.501,3.87-0.67,5.337c-0.177,1.437-0.316,2.567-0.416,3.374c-0.05,0.362-0.09,0.65-0.121,0.876
					c-0.03,0.197-0.05,0.298-0.059,0.297c-0.009-0.001-0.007-0.103,0.006-0.302c0.018-0.227,0.041-0.518,0.07-0.882
					c0.076-0.81,0.183-1.944,0.319-3.386c0.138-1.471,0.322-3.268,0.582-5.35c0.255-2.082,0.514-4.458,0.886-7.073
					c1.375-10.475,3.732-24.88,6.526-40.754c2.783-15.87,5.241-30.247,6.646-40.71c0.368-2.613,0.679-4.98,0.916-7.064
					c0.254-2.081,0.479-3.873,0.615-5.343c0.154-1.44,0.275-2.572,0.361-3.381c0.044-0.362,0.079-0.652,0.107-0.878
					C340.185,298.609,340.203,298.508,340.212,298.509z"/>
			</g>
			<g>
				<path style="fill:#263238;" d="M121.972,402.342c-0.015-0.01,0.099-0.219,0.33-0.606c0.219-0.394,0.602-0.938,1.002-1.691
					c0.835-1.483,1.93-3.715,2.736-6.648c0.802-2.928,1.178-6.577,0.845-10.587c-0.287-4.017-1.203-8.371-2.177-12.932
					c-0.981-4.564-1.854-8.943-2.293-12.98c-0.473-4.032-0.512-7.703-0.32-10.765c0.167-3.068,0.627-5.516,0.933-7.2
					c0.186-0.793,0.336-1.43,0.451-1.921c0.109-0.438,0.174-0.665,0.191-0.661c0.018,0.004-0.014,0.24-0.089,0.684
					c-0.09,0.495-0.208,1.137-0.354,1.936c-0.243,1.689-0.646,4.132-0.764,7.183c-0.144,3.045-0.067,6.686,0.429,10.69
					c0.462,4.008,1.344,8.363,2.326,12.927c0.974,4.561,1.882,8.942,2.146,13.007c0.311,4.055-0.109,7.764-0.969,10.719
					c-0.863,2.961-2.022,5.191-2.915,6.652c-0.43,0.743-0.841,1.271-1.09,1.647C122.13,402.163,121.987,402.352,121.972,402.342z"/>
			</g>
			<g>
				<path style="fill:#AE7461;" d="M84.846,310.046c0,0-2.982,6.499,0.395,10.963c3.377,4.464,5.357,2.649,5.357,2.649
					s-0.714,5.75,3.944,9.114c4.658,3.364,9.141,0.142,9.141,0.142s1.947,3.066,7.66,3.469c5.712,0.404,9.091-2.84,9.091-2.84
					s3.385,3.241,9.073,0.877c5.689-2.365,8.95-11.729,11.701-18.829c2.751-7.1,12.337-23.434,11.607-25.547
					c-0.73-2.113-2.593-5.719-5.678-3.927c-3.085,1.792-8.196,9.616-8.196,9.616l-40.922,6.255
					C98.02,301.988,87.42,304.069,84.846,310.046z"/>
				<path style="fill:#FF725E;" d="M235.38,274.653L62.389,309.325c-0.629,0.126-1.036,0.738-0.91,1.367l0,0
					c0.126,0.629,0.738,1.036,1.367,0.91l172.991-34.672c0.629-0.126,1.036-0.738,0.91-1.367l0,0
					C236.621,274.935,236.009,274.527,235.38,274.653z"/>
				<path style="opacity:0.3;" d="M235.38,274.653L62.389,309.325c-0.629,0.126-1.036,0.738-0.91,1.367l0,0
					c0.126,0.629,0.738,1.036,1.367,0.91l172.991-34.672c0.629-0.126,1.036-0.738,0.91-1.367l0,0
					C236.621,274.935,236.009,274.527,235.38,274.653z"/>
				<g>
					<path style="fill:#FFBE9D;" d="M238.069,349.362c0.802,0.166,1.509-0.25,2.147-1.083c0,0-2.532-2.321-2.638-4.512
						c-0.184-3.807,3.223-7.133,5.071-10.993c1.643-3.439,1.836-6.194,0-10.288c-2.424-5.407-8.296-9.024-7.981-14.941
						c0.164-3.034,3.507-7.959,4.287-10.892c1.433-5.38-2.529-15.243-6.993-19.06c-0.333-0.288-0.746-0.465-1.184-0.507
						l-26.04,1.998c0,0-0.973,2.053,3.026,6.664c3.632,4.185,5.265,7.839,3.281,13.741c-1.984,5.902-3.834,9.832-0.896,16.955
						c3.537,8.574,7.833,8.129,5.444,16.79c-2.389,8.666-6.92,7.974-3.709,20.137c0,0,2.325,1.18,4.3-0.715l0.692,2.886
						c0,0,3.199,0.967,4.919-1.067l-0.638-3.486c0,0,2.496,0.968,4.564-0.684l-0.349-4.413c0,0,1.59,2.946,2.758,3.821
						c0,0,2.075,3.268,5.205,0.222l0,0C233.334,349.934,234.821,351.512,238.069,349.362L238.069,349.362"/>
					<path style="fill:#FFBE9D;" d="M201.963,281.447c0.088-0.723-0.405-1.389-1.122-1.517c-0.725-0.099-1.396,0.399-1.512,1.121
						c-0.118,3.48,1.514,6.444,3.304,9.323c1.417,2.295,3.068,4.796,3.088,7.599c0.016,2.266-1.046,4.387-1.975,6.384
						c-1.021,2.203-2.054,4.479-2.201,6.924c-0.171,2.79,0.592,5.557,2.168,7.865c0.951,1.419,3.078-0.197,2.117-1.615
						c-1.531-2.277-2.026-5.096-1.362-7.758c0.53-2.199,1.713-4.207,2.591-6.28c0.942-2.219,1.583-4.601,1.19-7.025
						c-0.454-2.837-2.01-5.309-3.498-7.687c-1.358-2.189-2.88-4.675-2.79-7.338L201.963,281.447z"/>
					<path style="fill:#263238;" d="M209.736,281.102c0.106,1.136,0.396,2.247,0.862,3.292c0.622,1.383,1.378,2.705,2.257,3.949
						c1.092,1.503,2.067,3.083,2.918,4.726c0.457,0.932,0.781,1.92,0.963,2.938c0.172,1.089,0.147,2.199-0.075,3.282
						c-0.417,2.228-1.575,4.349-2.559,6.574c-0.523,1.12-0.938,2.283-1.238,3.476c-0.299,1.224-0.341,2.492-0.122,3.727
						c0.26,1.232,0.72,2.415,1.363,3.505c0.627,1.063,1.325,2.085,2.089,3.059c1.496,1.922,3.025,3.762,4.041,5.784
						c0.508,0.978,0.868,2.022,1.068,3.101c0.179,1.03,0.155,2.086-0.069,3.111c-0.474,1.8-1.263,3.511-2.333,5.057
						c-0.921,1.431-1.791,2.706-2.398,3.912c-0.556,1.014-0.964,2.098-1.21,3.219c-0.153,0.706-0.196,1.429-0.128,2.146
						c0.06,0.489,0.092,0.749,0.092,0.749c-0.071-0.243-0.121-0.491-0.149-0.742c-0.09-0.723-0.062-1.455,0.082-2.171
						c0.225-1.128,0.616-2.22,1.159-3.244c0.594-1.22,1.472-2.517,2.366-3.955c1.047-1.532,1.816-3.225,2.275-5.004
						c0.215-0.993,0.233-2.014,0.055-3.011c-0.196-1.058-0.553-2.081-1.06-3.035c-1.002-1.946-2.514-3.783-4.022-5.714
						c-0.776-0.981-1.482-2.013-2.114-3.087c-0.658-1.112-1.129-2.32-1.394-3.579c-0.227-1.272-0.184-2.577,0.125-3.836
						c0.305-1.21,0.726-2.39,1.258-3.525c0.994-2.231,2.127-4.334,2.555-6.517c0.222-1.053,0.251-2.135,0.085-3.196
						c-0.169-1-0.482-1.971-0.929-2.885c-0.839-1.638-1.8-3.214-2.874-4.716c-0.878-1.258-1.627-2.597-2.236-3.998
						c-0.458-1.061-0.738-2.188-0.83-3.337c-0.05-0.728,0.017-1.46,0.2-2.17c0.064-0.246,0.145-0.487,0.243-0.723
						C209.767,279.186,209.66,280.148,209.736,281.102z"/>
					<path style="fill:#263238;" d="M214.531,278.484c-0.057,0.719-0.018,1.441,0.118,2.148c0.222,1.12,0.597,2.205,1.115,3.226
						c0.692,1.354,1.481,2.658,2.363,3.901c1.086,1.504,2.014,3.112,2.772,4.799c0.408,0.956,0.663,1.969,0.757,3.003
						c0.075,1.097-0.027,2.2-0.301,3.268c-0.56,2.195-1.68,4.316-2.634,6.528c-0.5,1.125-0.873,2.3-1.111,3.503
						c-0.236,1.235-0.203,2.503,0.096,3.722c0.618,2.48,2.099,4.583,3.588,6.496c1.49,1.913,2.981,3.758,3.947,5.802
						c1.005,1.914,1.3,4.114,0.835,6.224c-0.506,1.789-1.302,3.489-2.357,5.033c-0.91,1.436-1.758,2.713-2.354,3.922
						c-0.532,1.015-0.92,2.097-1.152,3.215c-0.15,0.707-0.189,1.433-0.117,2.151c0.06,0.49,0.091,0.748,0.091,0.748
						c-0.071-0.242-0.121-0.49-0.149-0.741c-0.094-0.724-0.072-1.458,0.066-2.176c0.217-1.138,0.595-2.242,1.123-3.279
						c0.705-1.356,1.482-2.674,2.329-3.95c1.03-1.536,1.805-3.222,2.298-4.994c0.442-2.062,0.142-4.208-0.848-6.071
						c-0.935-2.012-2.412-3.864-3.912-5.775c-0.77-0.979-1.482-2-2.132-3.06c-0.675-1.097-1.181-2.286-1.5-3.53
						c-0.304-1.256-0.336-2.561-0.094-3.833c0.242-1.223,0.622-2.416,1.132-3.558c0.96-2.249,2.075-4.323,2.639-6.486
						c0.269-1.039,0.373-2.111,0.306-3.18c-0.092-1.011-0.339-2.001-0.733-2.938c-0.746-1.675-1.658-3.274-2.721-4.774
						c-0.877-1.252-1.659-2.565-2.34-3.93c-0.512-1.036-0.874-2.137-1.078-3.272c-0.13-0.716-0.153-1.447-0.067-2.17
						c0.025-0.253,0.069-0.503,0.133-0.75C214.655,277.71,214.601,277.968,214.531,278.484z"/>
					<path style="fill:#263238;" d="M219.37,278.116c0.092,0.707,0.255,1.403,0.484,2.079c0.383,1.077,0.868,2.114,1.447,3.099
						c0.655,1.16,1.534,2.405,2.449,3.822c1.048,1.524,1.871,3.191,2.443,4.95c0.298,0.995,0.424,2.033,0.375,3.07
						c-0.074,1.094-0.287,2.174-0.634,3.214c-0.691,2.131-1.805,4.218-2.658,6.46c-0.445,1.136-0.735,2.328-0.861,3.542
						c-0.05,0.618-0.044,1.24,0.018,1.858c0.083,0.625,0.221,1.241,0.412,1.842c0.803,2.419,2.311,4.48,3.783,6.379
						c1.472,1.899,2.897,3.815,3.777,5.893c0.448,1.004,0.732,2.074,0.841,3.168c0.094,1.035,0,2.078-0.276,3.08
						c-0.551,1.765-1.352,3.441-2.38,4.978c-0.833,1.261-1.596,2.568-2.285,3.913c-0.509,1.02-0.879,2.104-1.098,3.223
						c-0.138,0.708-0.17,1.432-0.096,2.149c0.06,0.49,0.091,0.748,0.091,0.748c-0.068-0.243-0.118-0.491-0.149-0.741
						c-0.095-0.722-0.078-1.454,0.05-2.171c0.201-1.134,0.559-2.233,1.065-3.267c0.676-1.359,1.429-2.678,2.254-3.952
						c1.007-1.525,1.79-3.187,2.326-4.934c0.266-0.977,0.351-1.995,0.253-3.003c-0.111-1.073-0.392-2.121-0.833-3.105
						c-0.873-2.031-2.3-3.866-3.758-5.826c-1.458-1.96-2.995-4.001-3.832-6.48c-0.195-0.618-0.337-1.252-0.424-1.894
						c-0.067-0.637-0.072-1.279-0.015-1.917c0.129-1.238,0.425-2.454,0.879-3.613c0.866-2.276,1.982-4.341,2.671-6.445
						c0.343-1.017,0.553-2.074,0.626-3.144c0.05-1.012-0.074-2.026-0.366-2.996c-0.559-1.74-1.364-3.391-2.389-4.903
						c-0.895-1.419-1.77-2.675-2.416-3.852c-0.565-1-1.03-2.053-1.389-3.144c-0.221-0.691-0.369-1.404-0.441-2.127
						c-0.027-0.253-0.035-0.507-0.023-0.761C219.31,277.311,219.309,277.573,219.37,278.116z"/>
					<path style="fill:#263238;" d="M224.418,278.221c0.027,0.13,0.077,0.322,0.14,0.576c0.209,0.736,0.475,1.453,0.797,2.147
						c0.507,1.097,1.095,2.154,1.76,3.163c0.77,1.189,1.706,2.507,2.591,4.061c1.032,1.676,1.651,3.573,1.809,5.535
						c0.085,2.138-0.663,4.335-1.591,6.495c-0.928,2.16-2.084,4.38-2.487,6.899c-0.031,0.314-0.094,0.631-0.098,0.947
						c-0.004,0.316-0.013,0.638-0.006,0.957c0.04,0.646,0.143,1.287,0.308,1.913c0.373,1.278,0.923,2.497,1.634,3.622
						c1.41,2.313,3.222,4.283,4.615,6.454c0.704,1.058,1.287,2.191,1.738,3.379c0.431,1.147,0.638,2.367,0.61,3.592
						c-0.06,1.164-0.324,2.309-0.779,3.382c-0.423,1.004-0.921,1.974-1.489,2.902c-0.542,0.905-1.084,1.757-1.598,2.579
						c-0.517,0.77-0.971,1.582-1.355,2.426c-0.634,1.468-0.808,3.094-0.5,4.663c0.262,1.176,0.674,2.313,1.225,3.383
						c0.245,0.435,0.455,0.837,0.649,1.155c0.194,0.318,0.383,0.595,0.521,0.813l0.322,0.495c0.037,0.056,0.071,0.115,0.102,0.175
						c-0.049-0.048-0.091-0.102-0.127-0.161l-0.343-0.493c-0.149-0.217-0.351-0.47-0.547-0.804s-0.418-0.713-0.674-1.142
						c-0.574-1.075-1.005-2.221-1.282-3.408c-0.335-1.597-0.176-3.259,0.455-4.764c0.383-0.857,0.836-1.682,1.356-2.464
						c0.506-0.847,1.045-1.683,1.582-2.582c0.559-0.921,1.047-1.883,1.46-2.877c0.437-1.048,0.69-2.164,0.746-3.298
						c0.027-1.194-0.178-2.381-0.603-3.496c-0.444-1.168-1.019-2.281-1.714-3.318c-1.379-2.146-3.191-4.121-4.621-6.458
						c-0.727-1.146-1.288-2.389-1.664-3.693c-0.173-0.644-0.279-1.305-0.316-1.971c-0.008-0.33-0.022-0.66,0.002-0.989
						c0.024-0.329,0.07-0.65,0.105-0.975c0.417-2.579,1.565-4.825,2.522-6.962c0.958-2.137,1.667-4.297,1.594-6.383
						c-0.143-1.927-0.737-3.793-1.734-5.448c-0.868-1.551-1.794-2.875-2.549-4.071c-0.658-1.021-1.236-2.093-1.727-3.204
						c-0.307-0.703-0.554-1.431-0.736-2.176c-0.063-0.26-0.108-0.524-0.134-0.791C224.386,278.005,224.391,278.09,224.418,278.221z"
						/>
					<path style="fill:#263238;" d="M237.451,348.849c-0.523-0.569-0.972-1.202-1.336-1.884c-0.273-0.489-0.513-0.995-0.719-1.516
						c-0.115-0.285-0.227-0.587-0.329-0.901c-0.097-0.342-0.161-0.692-0.192-1.046c-0.107-1.63,0.197-3.26,0.885-4.742
						c0.381-0.862,0.814-1.7,1.297-2.51l1.584-2.609c0.564-0.923,1.061-1.886,1.487-2.881c0.452-1.047,0.718-2.165,0.789-3.303
						c0.042-1.198-0.151-2.393-0.568-3.517c-0.441-1.176-1.014-2.299-1.707-3.346c-1.38-2.156-3.204-4.136-4.64-6.488
						c-0.734-1.151-1.3-2.401-1.682-3.712c-0.173-0.648-0.28-1.312-0.317-1.982c-0.008-0.33-0.022-0.66,0.002-0.989
						c0.024-0.329,0.07-0.655,0.105-0.98c0.411-2.589,1.583-4.848,2.545-6.997c0.962-2.148,1.657-4.328,1.573-6.418
						c-0.171-1.937-0.789-3.808-1.806-5.466c-0.884-1.554-1.806-2.885-2.568-4.09c-0.762-1.206-1.372-2.264-1.854-3.146
						s-0.816-1.563-1.023-2.072c-0.082-0.183-0.153-0.371-0.213-0.562c-0.053-0.127-0.061-0.196-0.061-0.196
						c0.037,0.059,0.066,0.121,0.087,0.187c0.047,0.122,0.128,0.305,0.238,0.548c0.218,0.476,0.576,1.17,1.067,2.04
						c0.491,0.87,1.095,1.919,1.888,3.115c0.793,1.197,1.735,2.519,2.636,4.077c1.044,1.68,1.682,3.58,1.864,5.55
						c0.097,2.147-0.65,4.35-1.57,6.53c-0.92,2.181-2.102,4.409-2.509,6.939c-0.031,0.314-0.094,0.631-0.098,0.953
						c-0.003,0.321-0.012,0.643-0.005,0.963c0.04,0.65,0.144,1.294,0.31,1.924c0.378,1.285,0.934,2.51,1.652,3.641
						c1.421,2.317,3.24,4.297,4.634,6.483c0.704,1.064,1.283,2.206,1.725,3.402c0.43,1.156,0.626,2.385,0.575,3.617
						c-0.076,1.169-0.352,2.316-0.815,3.392c-0.436,1.003-0.943,1.974-1.516,2.905l-1.609,2.58
						c-0.483,0.799-0.917,1.627-1.301,2.478c-0.689,1.45-1.001,3.051-0.907,4.654c0.025,0.338,0.082,0.673,0.17,1
						c0.097,0.314,0.203,0.611,0.312,0.892c0.198,0.52,0.428,1.027,0.688,1.519c0.358,0.68,0.795,1.315,1.3,1.893
						c0.348,0.396,0.552,0.579,0.552,0.579C237.845,349.213,237.638,349.041,237.451,348.849z"/>
					<path style="opacity:0.3;enable-background:new    ;" d="M204.98,281.064c0,0,3.349,2.782,12.414,1.001
						c9.066-1.78,13.801-4.892,13.801-4.892L204.98,281.064z"/>
					<path style="fill:#FFFFFF;" d="M243.045,328.178c0.179-1.16,0.143-2.112,0.227-2.123c0.183,0.708,0.198,1.449,0.045,2.164
						c-0.065,0.726-0.299,1.427-0.686,2.045C242.553,330.237,242.866,329.338,243.045,328.178z"/>
					<path style="fill:#FFFFFF;" d="M238.531,329.857c1.047-1.122,1.474-2.687,1.141-4.185c0.03-0.014,0.171,0.214,0.27,0.635
						c0.114,0.553,0.096,1.124-0.053,1.669c-0.146,0.546-0.422,1.049-0.804,1.466C238.791,329.755,238.535,329.888,238.531,329.857
						L238.531,329.857z"/>
					<path style="fill:#FFFFFF;" d="M233.203,324.345c-0.288-0.844-0.624-1.67-1.008-2.474c1.193,1.419,1.718,3.282,1.442,5.115
						C233.545,326.098,233.4,325.216,233.203,324.345z"/>
					<path style="fill:#FFFFFF;" d="M228.336,323.881c-0.315-0.827-0.774-1.397-0.711-1.447c0.882,0.728,1.336,1.854,1.204,2.99
						C228.749,325.429,228.651,324.708,228.336,323.881z"/>
					<path style="fill:#FFFFFF;" d="M222.998,324.501c-0.563-0.936-1.233-1.522-1.177-1.588c0.608,0.319,1.103,0.819,1.415,1.431
						c0.388,0.571,0.59,1.248,0.579,1.939C223.73,326.298,223.561,325.437,222.998,324.501z"/>
					<path style="fill:#FFFFFF;" d="M217.424,324.332c-0.265-0.55-0.56-0.952-0.513-1.006c0.047-0.054,0.474,0.29,0.765,0.885
						c0.217,0.339,0.297,0.747,0.225,1.143C217.823,325.362,217.689,324.882,217.424,324.332z"/>
					<path style="fill:#FFFFFF;" d="M238.617,293.135c-0.031-0.817-0.166-1.627-0.401-2.41c0.177,0.179,0.305,0.401,0.373,0.644
						c0.43,1.14,0.408,2.4-0.061,3.524c-0.184,0.423-0.387,0.635-0.387,0.635C238.397,294.754,238.557,293.95,238.617,293.135z"/>
					<path style="fill:#FFFFFF;" d="M235.204,292.809c0.051-0.936-0.096-1.704-0.017-1.714c0.448,1.106,0.385,2.354-0.172,3.409
						C234.965,294.479,235.153,293.745,235.204,292.809z"/>
					<path style="fill:#FFFFFF;" d="M229.243,291.736c-0.145-0.837-0.416-1.483-0.346-1.524c0.633,0.892,0.834,2.02,0.547,3.076
						C229.361,293.276,229.388,292.573,229.243,291.736z"/>
					<path style="fill:#FFFFFF;" d="M223.71,290.156c-0.48-1.128-1.08-1.931-1.017-1.982c1.083,1.079,1.71,2.533,1.752,4.062
						C224.361,292.246,224.19,291.284,223.71,290.156z"/>
					<path style="fill:#FFFFFF;" d="M218.667,290.472c-0.341-0.517-0.651-1.054-0.928-1.607c0.498,0.389,0.897,0.89,1.167,1.461
						c0.35,0.532,0.572,1.138,0.649,1.77C219.224,291.574,218.927,291.032,218.667,290.472z"/>
					<path style="fill:#FFFFFF;" d="M213.109,290.435c-0.253-0.58-0.454-1.181-0.599-1.797c0.723,1.067,1.159,2.302,1.266,3.586
						C213.499,291.649,213.276,291.05,213.109,290.435z"/>
					<path style="fill:#FFFFFF;" d="M207.558,297.421c-0.16-1.143-0.549-2.027-0.474-2.036c0.778,1.226,0.99,2.728,0.58,4.122
						C207.586,299.496,207.718,298.564,207.558,297.421z"/>
					<path style="fill:#FFFFFF;" d="M211.024,310.346c-0.102-0.828-0.005-1.668,0.283-2.45c0.082,0.017-0.097,1.091-0.008,2.427
						c0.088,1.336,0.431,2.395,0.347,2.405C211.249,311.997,211.036,311.179,211.024,310.346z"/>
					<path style="fill:#FFFFFF;" d="M219.577,312.509c-0.975-1.075-1.258-2.61-0.73-3.962c-0.029,0.678-0.005,1.358,0.072,2.033
						C219.086,311.239,219.306,311.885,219.577,312.509L219.577,312.509z"/>
					<path style="fill:#FFFFFF;" d="M224.937,312.239c-0.174-0.593,0.008-1.118,0.077-1.078c0.069,0.04,0.04,0.503,0.192,1.046
						c0.152,0.543,0.438,0.919,0.381,0.974C225.545,313.234,225.111,312.832,224.937,312.239z"/>
					<path style="fill:#FFFFFF;" d="M227.761,344.474c-0.178-0.479-0.255-0.99-0.226-1.501c0.022-0.512,0.154-1.013,0.387-1.469
						c0.177-0.348,0.35-0.502,0.376-0.506c-0.243,0.641-0.408,1.309-0.489,1.989c0.008,0.683,0.099,1.363,0.274,2.024
						C228.053,345.026,227.907,344.836,227.761,344.474z"/>
					<path style="fill:#FFFFFF;" d="M222.864,342.924c0.023-0.553,0.213-0.972,0.291-0.944c0.078,0.028,0.011,0.442-0.017,0.959
						c-0.028,0.516-0.002,0.946-0.081,0.956C222.984,343.914,222.84,343.477,222.864,342.924z"/>
					<path style="fill:#FFFFFF;" d="M218.052,343.351c-0.048-0.395,0.07-0.693,0.147-0.681c0.076,0.012,0.091,0.304,0.127,0.647
						c0.036,0.343,0.105,0.645,0.032,0.654C218.292,344.005,218.1,343.746,218.052,343.351z"/>
					<path style="fill:#FFFFFF;" d="M214.402,343.919c-0.04-0.327,0.115-0.548,0.162-0.554c0.047-0.006,0.079,0.252,0.112,0.521
						c0.033,0.269,0.087,0.497,0.017,0.532C214.628,344.458,214.442,344.246,214.402,343.919z"/>
				</g>
				<g>
					<path style="fill:#FF725E;" d="M231.85,277.49c0.635-0.092,1.075-0.681,0.983-1.316l0,0c-0.092-0.635-0.681-1.074-1.316-0.983
						L56.91,300.495c-0.635,0.092-1.075,0.681-0.983,1.316l0,0c0.092,0.635,0.681,1.075,1.316,0.983"/>
				</g>
				<path style="fill:#AE7461;" d="M121.535,291.13c-1.619-1.529-3.691-2.49-5.905-2.725c-4.251-0.45-9.558-0.716-11.474,0.365
					c-2.502,1.411-3.496,3.578-7.378,6.569c-3.882,2.991-2.63,5.512-1.549,6.639c1.081,1.126,5.595,0.732,9.61-1.173
					c4.015-1.906,7.991-6.7,7.991-6.7l1.373-1.876L121.535,291.13L121.535,291.13z"/>
				<g>
					<path style="fill:#AE7461;" d="M95.274,320.728c0,0,31.854-18.676,33.525-20.453c1.671-1.777,1.335-5.384-1.173-7.148
						c-2.095-1.473-8.016-2.653-19.789,3.957c0,0-17.189,8.95-17.287,9.434"/>
					<g>
						<path style="fill:#6F4439;" d="M90.55,306.518c-0.073-0.085,0.969-0.78,2.903-1.883c1.934-1.111,4.762-2.665,8.275-4.55
							c1.764-0.938,3.691-1.962,5.757-3.061c2.05-1.122,4.279-2.309,6.743-3.285c2.462-0.957,5.152-1.827,8.07-1.989
							c1.45-0.078,2.97,0.034,4.41,0.597c1.457,0.559,2.632,1.839,3.106,3.36c0.473,1.499,0.369,3.264-0.647,4.527
							c-0.232,0.333-0.588,0.518-0.876,0.778l-0.913,0.623c-0.605,0.417-1.221,0.794-1.823,1.188
							c-2.426,1.537-4.787,2.981-7.043,4.344c-4.512,2.727-8.599,5.141-12.037,7.158c-3.417,1.982-6.196,3.594-8.166,4.737
							c-0.94,0.529-1.686,0.949-2.237,1.259c-0.235,0.126-0.428,0.23-0.589,0.316c-0.134,0.068-0.205,0.1-0.21,0.092
							c-0.009-0.016,0.248-0.186,0.745-0.498c0.538-0.331,1.268-0.779,2.187-1.344c1.95-1.177,4.7-2.837,8.081-4.878
							c3.422-2.072,7.476-4.527,11.975-7.251c2.248-1.373,4.602-2.825,7.018-4.363c0.597-0.392,1.214-0.773,1.81-1.184
							c0.601-0.417,1.229-0.792,1.674-1.299c0.876-1.076,0.989-2.68,0.555-4.042c-0.433-1.383-1.489-2.534-2.806-3.041
							c-1.329-0.522-2.786-0.641-4.19-0.567c-2.826,0.149-5.484,0.992-7.92,1.926c-2.443,0.954-4.652,2.112-6.719,3.222
							c-2.076,1.078-4.012,2.083-5.785,3.003c-3.493,1.842-6.334,3.339-8.348,4.401c-0.945,0.519-1.694,0.931-2.248,1.234
							C90.788,306.335,90.55,306.518,90.55,306.518z"/>
					</g>
				</g>
				<g>
					<path style="fill:#AE7461;" d="M120.442,331.026c0,0,21.87-21.861,23.155-24.22c1.285-2.359,3.947-5.032,0.838-8.597
						c-3.109-3.565-11.337,2.485-11.337,2.485l-13.756,13.362"/>
					<g>
						<path style="fill:#6F4439;" d="M119.342,314.057c-0.008-0.009,0.069-0.101,0.228-0.272c0.19-0.197,0.425-0.441,0.714-0.742
							c0.674-0.677,1.598-1.604,2.754-2.764c2.434-2.396,5.838-5.748,9.901-9.748l0.012-0.011l0.012-0.009
							c1.095-0.786,2.284-1.513,3.58-2.168c1.296-0.642,2.705-1.227,4.27-1.451c0.778-0.098,1.614-0.094,2.41,0.193
							c0.4,0.136,0.765,0.371,1.094,0.643c0.325,0.294,0.555,0.627,0.814,0.95c0.471,0.68,0.854,1.467,0.967,2.332
							c0.12,0.863-0.05,1.751-0.373,2.545c-0.511,1.238-1.293,2.279-1.888,3.352c-0.745,1.119-1.6,1.968-2.41,2.896
							c-1.647,1.797-3.264,3.499-4.819,5.107c-3.106,3.218-5.94,6.079-8.329,8.473c-2.374,2.349-4.308,4.264-5.692,5.634
							c-0.653,0.627-1.176,1.129-1.571,1.508c-0.364,0.34-0.561,0.513-0.574,0.5c-0.013-0.013,0.16-0.21,0.499-0.574
							c0.378-0.397,0.877-0.921,1.502-1.577c1.355-1.398,3.25-3.352,5.574-5.749c2.359-2.445,5.15-5.338,8.245-8.547
							c1.544-1.615,3.153-3.323,4.787-5.118c0.788-0.901,1.685-1.826,2.334-2.802c0.624-1.121,1.385-2.142,1.86-3.299
							c0.299-0.74,0.445-1.524,0.341-2.282c-0.098-0.76-0.437-1.468-0.873-2.101c-0.241-0.301-0.468-0.625-0.734-0.864
							c-0.28-0.23-0.584-0.431-0.929-0.548c-0.683-0.249-1.442-0.263-2.17-0.173c-1.467,0.203-2.848,0.762-4.119,1.384
							c-1.27,0.632-2.457,1.348-3.526,2.102l0.023-0.02c-4.117,3.945-7.566,7.251-10.032,9.614
							c-1.193,1.122-2.146,2.019-2.842,2.673c-0.308,0.28-0.559,0.508-0.762,0.692C119.445,313.99,119.35,314.065,119.342,314.057z"
							/>
					</g>
				</g>
				<g>
					<path style="fill:#AE7461;" d="M103.891,315.645l24.908-15.37c0,0,8.826-5.01,10.71,0.108
						c1.883,5.118-2.698,8.824-6.153,11.448c-3.455,2.624-23.572,14.361-23.572,14.361"/>
					<g>
						<path style="fill:#6F4439;" d="M109.784,326.193c-0.009-0.016,0.233-0.177,0.701-0.471c0.511-0.314,1.198-0.736,2.061-1.266
							c1.841-1.114,4.43-2.68,7.611-4.604c3.204-1.955,7.046-4.251,11.206-6.946c1.041-0.674,2.057-1.406,3.068-2.223
							c1.009-0.806,2.004-1.673,2.887-2.666c0.874-0.992,1.661-2.117,2.069-3.402c0.403-1.283,0.377-2.695-0.083-4.003
							c-0.372-1.339-1.594-2.177-2.934-2.243c-1.334-0.118-2.682,0.201-3.942,0.606c-1.26,0.418-2.483,0.951-3.59,1.569
							c-1.107,0.68-2.192,1.345-3.25,1.995c-4.228,2.584-8.039,4.913-11.256,6.88c-3.182,1.923-5.771,3.487-7.613,4.6
							c-0.873,0.514-1.567,0.924-2.084,1.228c-0.479,0.276-0.736,0.413-0.745,0.398c-0.009-0.015,0.228-0.183,0.69-0.488
							c0.504-0.325,1.181-0.762,2.033-1.312c1.821-1.147,4.382-2.76,7.528-4.742c3.202-1.995,6.995-4.357,11.202-6.978
							c1.056-0.655,2.137-1.326,3.242-2.011c1.16-0.654,2.382-1.188,3.684-1.626c1.298-0.418,2.689-0.761,4.15-0.637
							c0.723,0.063,1.475,0.273,2.093,0.738c0.629,0.448,1.06,1.139,1.285,1.851c0.494,1.396,0.524,2.949,0.085,4.33
							c-0.442,1.385-1.276,2.562-2.182,3.585c-0.917,1.024-1.934,1.904-2.958,2.715c-1.014,0.814-2.068,1.566-3.115,2.236
							c-4.191,2.683-8.048,4.943-11.28,6.86c-3.238,1.905-5.871,3.425-7.697,4.463c-0.884,0.495-1.588,0.889-2.111,1.182
							C110.053,326.077,109.793,326.208,109.784,326.193z"/>
					</g>
				</g>
			</g>
		</g>
		<g>
			<g>
				<g>
					<g>
						<g>
							<g>
								<g>
									<path style="fill:#263238;" d="M270.619,46.776c2.898-3.558,7.54-5.622,12.123-5.389c1.865,0.095,3.925,0.496,5.451-0.581
										c1.091-0.771,1.599-2.107,2.375-3.194c2.382-3.338,7.812-3.895,10.822-1.108c0.74,0.686,1.366,1.546,2.293,1.945
										c3.746,1.616,7.213-5.442,10.943-3.788c-1.521,0.831-3.006,1.902-3.772,3.456c-0.767,1.555-0.587,3.683,0.797,4.726
										c3.59,2.706,8.63-4.33,12.566-2.159c2.122,1.17,2.661,4.59,5.053,4.979c0.925,0.151,1.841-0.24,2.762-0.411
										c3.097-0.579,6.439,1.731,6.991,4.834c0.472,2.65-0.629,6.014,1.51,7.649c1.324,1.012,3.195,0.69,4.819,0.32
										c0.152,2.455-0.269,4.943-1.218,7.212c4.541,2.167,6.596,8.381,4.242,12.828c2.243,1.501,4.533,3.072,6.036,5.314
										c1.503,2.242,2.05,5.338,0.629,7.632c-0.323,0.521-0.743,1-0.91,1.591c-0.18,0.639-0.038,1.322,0.143,1.961
										c0.699,2.464,1.98,4.805,2.096,7.364c0.116,2.559-1.568,5.501-4.129,5.473c-0.597-0.007-1.266-0.156-1.74,0.207
										c-0.358,0.273-0.477,0.756-0.526,1.204c-0.197,1.831,0.392,3.641,0.778,5.441c0.386,1.8,0.54,3.801-0.423,5.371
										c-0.963,1.57-3.427,2.274-4.682,0.925c0.941,2.787,1.881,5.574,2.822,8.361c0.559,1.657,1.059,3.673-0.078,5.003
										c-1.489,1.742-4.497,0.683-5.864-1.157c-1.367-1.84-1.876-4.216-3.292-6.019c-0.578-0.736-1.304-1.372-1.72-2.211
										c-0.328-0.663-0.482-1.474-1.086-1.901c-1.216-0.858-2.857,0.87-2.591,2.334c0.266,1.463,1.523,2.498,2.542,3.581
										c1.019,1.084,1.898,2.665,1.236,3.997c-0.319,0.644-0.949,1.095-1.251,1.746c-1.044,2.255,2.287,4.121,2.843,6.543
										c0.412,1.789-0.783,3.524-1.984,4.913c-1.465,1.696-4.433,3.2-5.577,1.273c-0.397-0.669-0.338-1.519-0.656-2.229
										c-0.372-0.831-1.193-1.348-1.913-1.906c-1.786-1.388-3.15-3.311-3.87-5.455c2.058,2.185,4.274,5.112,3.138,7.89
										c-0.474,1.161-1.462,2.018-2.262,2.984c-1.57,1.896-2.456,4.281-4,6.199c-1.544,1.917-4.213,3.348-6.445,2.31
										c0.922,2.299,0.064,5.179-1.965,6.599c-2.029,1.42-5.029,1.239-6.873-0.415c-0.506-0.454-0.959-1.02-1.607-1.225
										c-0.698-0.221-1.446,0.032-2.154,0.217c-4.25,1.111-9.076-0.416-11.912-3.771c0.712-0.313,1.424-0.626,2.136-0.938
										c-4.351-0.236-8.888-0.525-12.658-2.712c-3.77-2.187-6.46-6.899-4.887-10.964c0.682-1.761,2.098-3.623,1.265-5.318
										c-0.574-1.168-1.976-1.622-3.233-1.961c-5.26-1.418-10.52-2.836-15.779-4.255c-2.553-0.688-5.245-1.458-7.053-3.386
										c-1.809-1.928-2.221-5.417-0.136-7.043c-1.362-2.284-3.386-4.168-5.762-5.363c-2.67-1.343-5.703-1.807-8.431-3.028
										c-2.729-1.221-5.311-3.597-5.347-6.586c-0.036-2.989,3.894-5.598,6.105-3.586c-0.745-4.45-8.749-4.128-9.769-8.523
										c-0.828-3.57,3.652-5.795,5.824-8.747c-0.58-1.218-1.923-1.926-2.539-3.126c-1.293-2.518,1.212-5.321,3.669-6.727
										c2.457-1.406,5.473-2.871,5.883-5.671c0.421-2.865-2.237-5.87-0.924-8.45c0.728-1.43,2.685-2.076,4.121-1.36
										c1.663-5.319,11.678-2.163,14.152-7.157c0.196-0.395,0.327-0.845,0.237-1.277c-0.078-0.373-0.312-0.694-0.571-0.974
										c-1.227-1.33-3.018-1.958-4.527-2.956c-1.51-0.998-2.848-2.758-2.33-4.492c0.518-1.734,3.72-1.919,3.82-0.112
										c1.708-1.778,5.172-1.18,6.185,1.068c1.133-1.605,3.575-1.769,5.334-0.895c1.759,0.874,2.995,2.509,4.163,4.088"/>
								</g>
							</g>
						</g>
					</g>
				</g>
				<g>
					<g>
						<g>
							<g>
								<g>
									<path style="fill:#FF725E;" d="M299.38,101.981c-2.329-7.241-8.375-12.697-14.851-16.688
										c-2.715-1.673-5.662-3.188-8.846-3.372c-3.184-0.184-6.65,1.276-7.969,4.18l0.956,5.25
										c0.164,8.477,7.358,14.906,11.227,22.45c1.683,3.281,3.185,7.273,6.698,8.394c1.842,0.588,3.879,0.197,5.635-0.612
										C299.14,118.4,301.71,109.223,299.38,101.981z"/>
								</g>
							</g>
						</g>
					</g>
				</g>
				<g>
					<g>
						<g>
							<g>
								<g>
									<path style="fill:#263238;" d="M303.991,140.798c4.104-6.805,2.303-16.551-3.962-21.439
										c2.646-4.231,0.855-10.089-2.72-13.57c-3.575-3.481-8.488-5.152-13.226-6.719c-3.764-11.069-17.416-17.601-28.397-13.587
										c-6.868-7.977-19.555-7.906-29.262-3.836c-2.371,0.994-4.716,2.197-7.272,2.478c-1.875,0.206-3.764-0.098-5.65-0.136
										c-10.372-0.21-19.691,8.136-22.591,18.096c-0.464,1.593-0.804,3.254-1.666,4.671c-1.13,1.86-3.026,3.094-4.588,4.609
										c-3.377,3.276-5.211,8.08-4.875,12.774c0.286,3.986,2.028,8.053,0.768,11.845c-0.632,1.901-1.978,3.532-2.416,5.486
										c-1.268,5.665,5.408,10.548,4.933,16.334c-0.097,1.181-0.495,2.315-0.686,3.484c-0.39,2.39,0.123,4.918,1.415,6.966
										c0.997,1.582,2.472,2.965,2.793,4.807c0.243,1.398-0.23,2.809-0.355,4.222c-0.306,3.456,8.468,15.651,11.594,17.155
										l87.31-9.157c6.447-2.097,11.142-8.691,11.013-15.47c-0.021-1.127-0.142-2.34,0.448-3.3
										c0.503-0.819,1.415-1.271,2.205-1.818c5.272-3.655,5.071-11.443,3.757-17.723c-0.184-0.879-0.38-1.779-0.254-2.669
										C302.488,143.007,303.316,141.916,303.991,140.798z"/>
								</g>
							</g>
						</g>
					</g>
				</g>
				<path style="fill:#AE7461;" d="M279.03,143.948c-1.501-15.465-13.203-32.1-29.396-37.901
					c-10.208-3.657-17.752-2.829-22.901-2.842c-11.536-0.03-20.079,6.658-20.079,6.658c-4.679,1.677-20.458,19.815-19.378,37.424
					c1.199,19.562,3.435,43.398,7.542,57.594c8.259,28.544,31.041,29.464,31.041,29.464c-0.003-0.045,1.821,26.22,1.821,26.22
					l53.033-5.609L279.03,143.948z"/>
				<g>
					<g>
						<g>
							<g>
								<g>
									<path style="fill:#6F4439;" d="M241.506,193.282c-0.286-1.408-1.163-2.61-2.231-3.404c-2.136-1.586-5.092-1.55-7.146,0.088
										c-2.054,1.638-4.036,0.596-3.432,3.404l1.882,3.59c1.326,1.58,2.333,3.166,4.395,3.201
										c0.321,0.006,0.642-0.005,0.962-0.036c1.552-0.148,3.097-0.783,4.205-2.012C241.25,196.885,241.859,195.02,241.506,193.282
										z"/>
								</g>
							</g>
						</g>
					</g>
				</g>
				<g>
					<g>
						<g>
							<g>
								<g>
									<g>
										<g>
											<g>
												<g>
													<g>
														<path style="fill:#263238;" d="M202.544,171.115c0.176,1.982,2,3.465,4.072,3.319c2.068-0.146,3.606-1.866,3.43-3.848
															c-0.177-1.981-2.001-3.466-4.067-3.321C203.905,167.411,202.367,169.135,202.544,171.115z"/>
													</g>
												</g>
											</g>
										</g>
									</g>
								</g>
							</g>
						</g>
					</g>
				</g>
				<g>
					<g>
						<g>
							<g>
								<g>
									<g>
										<g>
											<g>
												<g>
													<g>
														<g>
															<path style="fill:#263238;" d="M195.342,157.451c0.524,0.43,3.092-2.017,7.113-2.509
																c4.008-0.548,7.216,1.152,7.59,0.605c0.188-0.245-0.395-1.064-1.795-1.839c-1.38-0.773-3.65-1.409-6.152-1.087
																c-2.501,0.326-4.492,1.512-5.585,2.605C195.396,156.328,195.087,157.262,195.342,157.451z"/>
														</g>
													</g>
												</g>
											</g>
										</g>
									</g>
								</g>
							</g>
						</g>
					</g>
				</g>
				<g>
					<g>
						<g>
							<g>
								<g>
									<g>
										<g>
											<g>
												<g>
													<g>
														<path style="fill:#263238;" d="M222.817,186.253c-0.009-0.23-2.562-0.349-6.674-0.363
															c-1.039,0.022-2.036-0.061-2.297-0.739c-0.334-0.712-0.043-1.871,0.305-3.127c0.656-2.604,1.34-5.334,2.06-8.194
															c2.825-11.651,4.735-21.181,4.265-21.29c-0.471-0.11-3.143,9.245-5.969,20.897c-0.671,2.87-1.315,5.607-1.926,8.224
															c-0.243,1.215-0.745,2.621-0.03,4.095c0.372,0.733,1.195,1.194,1.875,1.29c0.683,0.119,1.261,0.057,1.773,0.025
															C220.3,186.78,222.83,186.483,222.817,186.253z"/>
													</g>
												</g>
											</g>
										</g>
									</g>
								</g>
							</g>
						</g>
					</g>
				</g>
				<g>
					<g>
						<g>
							<g>
								<g>
									<g>
										<g>
											<g>
												<g>
													<path style="fill:#6F4439;" d="M225.846,234.166c0,0,19.879-1.191,37.833-15.28c0,0-7.821,21.821-37.307,22.734
														L225.846,234.166z"/>
												</g>
											</g>
										</g>
									</g>
								</g>
							</g>
						</g>
					</g>
				</g>
				<g>
					<g>
						<g>
							<g>
								<g>
									<g>
										<g>
											<g>
												<g>
													<g>
														<g>
															<g>
																<path style="fill:#263238;" d="M195.917,146.778c0.94,0.747,3.713-0.791,7.267-1.561
																	c3.528-0.884,6.703-0.734,7.205-1.818c0.212-0.52-0.448-1.326-1.939-1.911c-1.472-0.586-3.787-0.838-6.221-0.271
																	c-2.433,0.57-4.389,1.818-5.439,2.994C195.719,145.394,195.494,146.406,195.917,146.778z"/>
															</g>
														</g>
													</g>
												</g>
											</g>
										</g>
									</g>
								</g>
							</g>
						</g>
					</g>
				</g>
				<g>
					<g>
						<g>
							<g>
								<g>
									<g>
										<g>
											<g>
												<g>
													<g>
														<path style="fill:#263238;" d="M244.736,166.73c0.242,1.975-1.23,3.807-3.287,4.098
															c-2.052,0.291-3.917-1.07-4.159-3.044c-0.242-1.974,1.23-3.809,3.282-4.099
															C242.629,163.393,244.494,164.756,244.736,166.73z"/>
													</g>
												</g>
											</g>
										</g>
									</g>
								</g>
							</g>
						</g>
					</g>
				</g>
				<g>
					<g>
						<g>
							<g>
								<g>
									<g>
										<g>
											<g>
												<g>
													<g>
														<g>
															<path style="fill:#263238;" d="M250.525,152.166c-0.422,0.529-3.445-1.325-7.48-0.965
																c-4.034,0.303-6.815,2.638-7.295,2.181c-0.235-0.2,0.164-1.124,1.369-2.174c1.188-1.045,3.275-2.142,5.788-2.351
																c2.515-0.205,4.709,0.537,6.007,1.378C250.237,151.08,250.735,151.927,250.525,152.166z"/>
														</g>
													</g>
												</g>
											</g>
										</g>
									</g>
								</g>
							</g>
						</g>
					</g>
				</g>
				<g>
					<g>
						<g>
							<g>
								<g>
									<g>
										<g>
											<g>
												<g>
													<g>
														<g>
															<g>
																<path style="fill:#263238;" d="M248.448,136.291c-0.715,0.985-3.911,0.307-7.658,0.589
																	c-3.755,0.165-6.859,1.219-7.672,0.324c-0.361-0.438,0.058-1.399,1.368-2.387c1.289-0.983,3.51-1.889,6.089-2.045
																	c2.578-0.151,4.879,0.484,6.263,1.309C248.242,134.907,248.759,135.813,248.448,136.291z"/>
															</g>
														</g>
													</g>
												</g>
											</g>
										</g>
									</g>
								</g>
							</g>
						</g>
					</g>
				</g>
				<g>
					<g>
						<g>
							<g>
								<g>
									<g>
										<g>
											<g>
												<g>
													<path style="fill:#AE7461;" d="M277.772,171.953c-0.266-2.169,1.603-7.595,3.703-8.197
														c5.608-1.605,15.974-2.433,17.883,12.08c2.609,19.838-21.501,18.877-21.611,18.313
														C277.661,193.709,278.688,179.444,277.772,171.953z"/>
												</g>
											</g>
										</g>
									</g>
								</g>
							</g>
						</g>
					</g>
				</g>
				<g>
					<g>
						<g>
							<g>
								<g>
									<g>
										<g>
											<g>
												<g>
													<g>
														<path style="fill:#6F4439;" d="M284.912,185.986c0.079-0.075,0.377,0.197,0.996,0.388
															c0.604,0.185,1.608,0.237,2.591-0.287c1.995-1.044,3.322-4.604,2.947-8.192c-0.187-1.813-0.791-3.482-1.617-4.822
															c-0.797-1.372-1.869-2.262-2.949-2.31c-1.082-0.105-1.745,0.625-1.916,1.214c-0.193,0.591-0.014,0.971-0.115,1.017
															c-0.048,0.058-0.469-0.275-0.417-1.115c0.03-0.406,0.201-0.905,0.618-1.347c0.424-0.449,1.098-0.739,1.844-0.756
															c1.544-0.095,3.106,1.131,4.014,2.602c0.993,1.466,1.715,3.337,1.925,5.372c0.399,4.014-1.155,8.024-3.915,9.231
															c-1.347,0.546-2.567,0.279-3.23-0.11C285.01,186.462,284.848,186.031,284.912,185.986z"/>
													</g>
												</g>
											</g>
										</g>
									</g>
								</g>
							</g>
						</g>
					</g>
				</g>
				<g>
					<g>
						<g>
							<g>
								<g>
									<path style="fill:#263238;" d="M182.89,147.933c3.7-3.006,5.837-6.735,5.001-11.428c2.759,0.462,5.034-3.299,6.3-5.793
										c1.266-2.494,3.023-3.892,2.56-6.65c-0.092-0.545-0.198-1.12-0.002-1.637c0.308-0.811,1.221-1.177,2.012-1.536
										c4.069-1.846,7.054-5.897,7.613-10.331c4.486,1.334,9.307,1.527,13.886,0.557c2.427,2.725,6.296,4.086,9.894,3.479
										c3.599-0.607,6.808-3.161,8.207-6.531c1.51,2.335,4.284,3.61,7.043,3.956c2.759,0.346,5.549-0.114,8.291-0.574
										c-0.529,5.482,3.673,11.009,9.096,11.966c0.733,0.129,1.577,0.243,1.984,0.865c0.424,0.648,0.152,1.499-0.032,2.251
										c-1.169,4.757,2.553,10.109,7.42,10.667c-2.936,2.921-1.877,8.705,1.902,10.397c0.776,0.347,1.784,0.755,1.777,1.605
										c-0.003,0.323-0.17,0.619-0.331,0.9c-1.235,2.148-2.442,4.476-2.317,6.95c0.124,2.474,2.123,5.021,4.593,4.823
										c-1.148,1.307-2.168,2.933-1.984,4.662c0.185,1.73,2.149,3.271,3.682,2.449c0.652-0.349,10.298-3.52,10.66-4.165
										c4.672-8.324-3.441-15.874-5.17-25.262c-1.729-9.388-6.168-18.135-11.912-25.759c-2.41-3.198-5.075-6.24-8.239-8.694
										c-3.606-2.798-7.772-4.769-11.915-6.684c-5.405-2.499-10.951-4.974-16.872-5.617c-11.029-1.198-21.68,4.076-31.1,9.934
										c-3.583,2.228-7.137,4.596-9.997,7.698c-3.422,3.712-5.706,8.323-7.615,12.996c-2.76,6.753-4.857,13.927-4.665,21.219"/>
								</g>
							</g>
						</g>
					</g>
				</g>
				<g>
					<g>
						<g>
							<g>
								<g>
									<path style="fill:#455A64;" d="M178.134,141.469c0,0,0.097-0.844,0.808-2.263c0.339-0.712,0.839-1.554,1.28-2.609
										c0.427-1.054,0.713-2.362,0.657-3.847c-0.022-1.485-0.344-3.117-0.691-4.901c-0.347-1.779-0.726-3.764-0.569-5.916
										c0.138-2.139,0.718-4.412,1.842-6.577c0.561-1.081,1.258-2.133,2.097-3.112c0.832-0.988,1.841-1.854,2.851-2.719
										c1.001-0.872,2.009-1.798,2.697-2.974c0.691-1.176,1.038-2.562,1.422-3.97c0.77-2.84,2.043-5.68,3.88-8.27
										c1.825-2.588,4.129-5.01,6.969-6.865c1.386-0.978,2.955-1.71,4.56-2.384c1.645-0.573,3.356-1.071,5.147-1.231
										c0.888-0.115,1.797-0.1,2.701-0.116c0.905,0.029,1.804,0.109,2.701,0.157c1.797,0.133,3.58-0.034,5.308-0.646
										c1.734-0.569,3.399-1.424,5.179-2.106c1.762-0.726,3.619-1.25,5.507-1.685c1.893-0.431,3.844-0.656,5.814-0.768
										c1.975-0.078,3.971,0.044,5.957,0.359c3.939,0.693,7.894,2.374,10.807,5.371c0.287,0.297,0.573,0.594,0.856,0.888
										l-0.332-0.087c5.838-2.121,12.305-1.269,17.523,1.359c5.252,2.615,9.451,7.12,11.248,12.419l-0.181-0.18
										c2.54,0.843,5.054,1.695,7.413,2.822c2.352,1.123,4.556,2.539,6.306,4.388c1.736,1.86,2.93,4.146,3.424,6.539
										c0.503,2.382,0.193,4.942-1.075,6.946l-0.058-0.33c3.184,2.496,5.077,6.098,5.822,9.636
										c0.749,3.555,0.425,7.145-0.857,10.122c-0.281,0.761-0.706,1.443-1.078,2.128c-0.41,0.661-0.836,1.285-1.151,1.94
										c-0.317,0.654-0.496,1.34-0.468,2.034c0.016,0.695,0.175,1.376,0.308,2.055c0.544,2.716,0.796,5.265,0.712,7.564
										c-0.089,2.296-0.5,4.348-1.252,5.976c-0.729,1.64-1.748,2.823-2.694,3.601c-0.942,0.802-1.817,1.175-2.276,1.605
										c-0.481,0.402-0.631,0.703-0.65,0.688c0,0,0.125-0.316,0.599-0.746c0.452-0.456,1.324-0.858,2.229-1.662
										c0.915-0.784,1.894-1.958,2.588-3.575c0.717-1.606,1.101-3.628,1.167-5.896c0.062-2.272-0.207-4.795-0.766-7.484
										c-0.137-0.672-0.307-1.371-0.33-2.115c-0.037-0.747,0.16-1.52,0.49-2.206c0.328-0.693,0.759-1.33,1.158-1.983
										c0.359-0.672,0.768-1.335,1.038-2.078c1.232-2.903,1.531-6.407,0.786-9.87c-0.74-3.447-2.6-6.94-5.683-9.338l-0.178-0.139
										l0.12-0.191c1.182-1.885,1.474-4.296,0.987-6.576c-0.478-2.287-1.636-4.492-3.307-6.271
										c-1.69-1.777-3.84-3.157-6.153-4.255c-2.319-1.103-4.812-1.945-7.352-2.782l-0.136-0.045l-0.046-0.136
										c-1.75-5.135-5.841-9.523-10.971-12.071c-5.097-2.562-11.399-3.38-17.05-1.324l-0.184,0.067l-0.148-0.153
										c-0.274-0.283-0.55-0.569-0.827-0.856c-2.809-2.892-6.635-4.524-10.481-5.205c-1.939-0.308-3.894-0.429-5.831-0.354
										c-1.934,0.109-3.851,0.327-5.712,0.75c-1.858,0.426-3.685,0.939-5.418,1.651c-1.748,0.666-3.425,1.525-5.214,2.109
										c-0.891,0.295-1.809,0.521-2.744,0.628c-0.936,0.106-1.866,0.087-2.775,0.036c-0.91-0.051-1.805-0.132-2.689-0.161
										c-0.88,0.015-1.761-0.002-2.625,0.107c-1.74,0.151-3.407,0.633-5.012,1.187c-1.567,0.655-3.101,1.363-4.46,2.318
										c-2.783,1.807-5.052,4.176-6.852,6.711c-1.814,2.538-3.072,5.316-3.842,8.107c-0.389,1.397-0.747,2.824-1.487,4.072
										c-0.74,1.249-1.792,2.197-2.803,3.07c-1.023,0.868-2.007,1.704-2.822,2.661c-0.823,0.949-1.509,1.972-2.064,3.024
										c-1.111,2.109-1.694,4.329-1.846,6.423c-0.17,2.102,0.184,4.054,0.515,5.839c0.33,1.786,0.639,3.439,0.643,4.951
										c0.039,1.511-0.273,2.854-0.726,3.921c-0.465,1.064-0.981,1.894-1.336,2.594c-0.367,0.695-0.593,1.249-0.724,1.629
										C178.193,141.27,178.149,141.473,178.134,141.469z"/>
								</g>
							</g>
						</g>
					</g>
				</g>
				<g>
					<g>
						<g>
							<g>
								<g>
									<path style="fill:#455A64;" d="M245.83,82.256c-0.026,0.048-0.562-0.237-1.585-0.592c-1.02-0.348-2.556-0.75-4.484-0.735
										c-1.913,0.004-4.235,0.448-6.412,1.748c-2.162,1.29-4.162,3.411-5.285,6.106c-0.323,0.773-0.581,1.587-0.713,2.368
										c-0.124,0.775-0.058,1.577,0.4,2.075l0.567,0.616l-0.829-0.129c-2.278-0.354-4.494,0.343-6.053,1.481
										c-1.587,1.138-2.488,2.717-2.92,4.086c-0.438,1.384-0.439,2.574-0.377,3.367c0.07,0.799,0.186,1.228,0.142,1.239
										c-0.017,0.005-0.06-0.097-0.129-0.3c-0.071-0.202-0.149-0.51-0.214-0.915c-0.128-0.805-0.19-2.037,0.217-3.498
										c0.399-1.442,1.309-3.145,2.979-4.389c1.636-1.238,3.983-2.015,6.445-1.651l-0.262,0.488
										c-0.647-0.71-0.688-1.716-0.558-2.56c0.145-0.867,0.409-1.689,0.749-2.51c1.178-2.826,3.283-5.03,5.56-6.352
										c2.296-1.334,4.724-1.746,6.697-1.695c1.991,0.041,3.551,0.52,4.564,0.942c0.507,0.215,0.89,0.407,1.137,0.56
										C245.714,82.152,245.839,82.238,245.83,82.256z"/>
								</g>
							</g>
						</g>
					</g>
				</g>
				<g>
					<g>
						<g>
							<g>
								<g>
									<path style="fill:#455A64;" d="M280.837,101.128c0.026,0.024-0.176,0.314-0.608,0.794
										c-0.434,0.476-1.098,1.149-2.056,1.835c-0.956,0.676-2.229,1.384-3.817,1.672c-1.56,0.287-3.473,0.156-5.113-0.889
										l0.431-0.121c-0.157,0.289-0.319,0.585-0.483,0.887c-0.18,0.291-0.386,0.573-0.582,0.864
										c-1.278,1.69-2.929,2.94-4.586,3.693c-1.654,0.773-3.289,1.113-4.66,1.171c-1.376,0.061-2.479-0.144-3.217-0.332
										c-0.731-0.224-1.116-0.393-1.104-0.427c0.027-0.129,1.628,0.542,4.292,0.334c1.319-0.11,2.878-0.481,4.448-1.247
										c1.575-0.747,3.132-1.953,4.342-3.551c0.184-0.276,0.381-0.542,0.552-0.817c0.156-0.283,0.31-0.563,0.46-0.834l0.162-0.295
										l0.27,0.175c1.466,0.948,3.228,1.105,4.699,0.867c1.49-0.236,2.728-0.866,3.682-1.479
										C279.85,102.156,280.762,101.049,280.837,101.128z"/>
								</g>
							</g>
						</g>
					</g>
				</g>
				<g>
					<g>
						<g>
							<g>
								<g>
									<path style="fill:#455A64;" d="M293.58,118.268c0.021,0.002,0.019,0.128-0.004,0.371c-0.041,0.238-0.113,0.598-0.326,1.015
										c-0.394,0.838-1.363,1.917-2.94,2.517c-1.584,0.625-3.646,0.544-5.748,0.076c-1.055-0.238-2.149-0.473-3.286-0.854
										c-1.107-0.386-2.335-0.984-3.048-2.165c-0.056-0.104-0.112-0.208-0.163-0.304l0.486,0.085
										c-1.73,1.728-3.543,3.269-5.46,4.255c-1.9,1.014-3.889,1.38-5.508,1.256c-1.629-0.106-2.882-0.639-3.627-1.144
										c-0.379-0.246-0.645-0.476-0.808-0.647c-0.165-0.17-0.243-0.265-0.229-0.28c0.037-0.042,0.395,0.303,1.157,0.729
										c0.755,0.427,1.971,0.872,3.527,0.92c1.554,0.063,3.416-0.322,5.23-1.322c1.826-0.974,3.58-2.482,5.292-4.194l0.286-0.286
										l0.2,0.372c0.043,0.08,0.089,0.167,0.136,0.254c0.583,0.978,1.665,1.541,2.724,1.915c1.071,0.369,2.179,0.621,3.209,0.869
										c2.055,0.488,4.001,0.596,5.484,0.066c1.494-0.513,2.447-1.472,2.88-2.229C293.496,118.779,293.516,118.254,293.58,118.268
										z"/>
								</g>
							</g>
						</g>
					</g>
				</g>
				<g>
					<g>
						<g>
							<g>
								<g>
									<path style="fill:#455A64;" d="M306.192,44.749c0.005,0.041-0.341,0.055-0.923,0.283c-0.574,0.229-1.383,0.732-2.039,1.701
										c-0.66,0.955-1.149,2.344-1.032,3.977c0.078,1.633,0.678,3.412,1.404,5.326l0.117,0.309l-0.335,0.03
										c-2.237,0.205-4.672,1.147-6.612,2.939c-1.944,1.763-3.239,4.522-2.914,7.414c0.228,2.633,1.673,5.043,3.698,6.264
										l0.732,0.441l-0.85,0.097c-3.071,0.35-5.642,2.137-7.126,4.23c-1.525,2.112-1.915,4.512-1.793,6.406
										c0.122,1.92,0.721,3.377,1.204,4.306c0.495,0.933,0.867,1.383,0.828,1.413c-0.014,0.011-0.114-0.094-0.294-0.308
										c-0.184-0.211-0.429-0.547-0.706-1.008c-0.546-0.917-1.22-2.391-1.398-4.374c-0.179-1.953,0.178-4.479,1.752-6.723
										c1.529-2.218,4.207-4.128,7.471-4.52l-0.118,0.538c-2.211-1.318-3.755-3.904-3.999-6.705
										c-0.157-1.522,0.074-3.065,0.652-4.423c0.567-1.364,1.457-2.528,2.47-3.473c2.059-1.878,4.616-2.836,6.963-3.02
										l-0.217,0.34c-0.702-1.927-1.294-3.77-1.34-5.483c-0.087-1.71,0.475-3.197,1.205-4.165
										c0.727-0.994,1.612-1.486,2.226-1.676c0.31-0.096,0.556-0.138,0.723-0.143C306.105,44.734,306.191,44.735,306.192,44.749z"
										/>
								</g>
							</g>
						</g>
					</g>
				</g>
				<g>
					<g>
						<g>
							<g>
								<g>
									<path style="fill:#455A64;" d="M346.895,83.453c0.009,0.013-0.094,0.092-0.301,0.231c-0.211,0.131-0.509,0.356-0.936,0.576
										c-0.842,0.46-2.146,1.032-3.889,1.396c-1.736,0.356-3.927,0.505-6.331,0.014c-2.399-0.446-5.009-1.583-7.235-3.566
										l0.448-0.092c-1.395,3.133-4.249,6.209-8.191,7.222c-4.169,1.065-8.642-0.794-10.535-4.049l0.513-0.084
										c-0.324,1.439-1.07,2.689-1.977,3.664c-0.911,0.979-1.969,1.706-3.031,2.242c-2.153,1.058-4.271,1.298-5.969,1.374
										c-1.712,0.059-3.06-0.066-3.978-0.154c-0.919-0.096-1.41-0.176-1.407-0.206c0.003-0.033,0.5-0.014,1.42,0.025
										c0.918,0.032,2.264,0.102,3.948-0.005c1.669-0.121,3.733-0.407,5.775-1.452c1.999-1.026,4.081-2.914,4.674-5.605
										l0.154-0.696l0.359,0.611c1.767,3.006,6,4.756,9.908,3.751c3.712-0.948,6.466-3.871,7.825-6.868l0.16-0.352l0.288,0.26
										c2.121,1.916,4.627,3.047,6.949,3.515c2.327,0.513,4.464,0.412,6.171,0.112C345.151,84.678,346.844,83.327,346.895,83.453z
										"/>
								</g>
							</g>
						</g>
					</g>
				</g>
				<g>
					<g>
						<g>
							<g>
								<g>
									<path style="fill:#455A64;" d="M329.62,115.053c0.014,0.004-0.012,0.159-0.188,0.389c-0.175,0.229-0.539,0.493-1.063,0.64
										c-1.05,0.269-2.624,0.294-4.478-0.193c-1.833-0.493-3.954-1.611-5.568-3.602c-1.603-1.965-2.645-4.767-2.431-7.72
										l0.003-0.063l0.469,0.275c-2.454,1.634-5.319,2.201-7.825,2.071c-2.531-0.119-4.708-0.945-6.353-1.865
										c-1.655-0.928-2.815-1.945-3.555-2.689c-0.74-0.75-1.079-1.224-1.053-1.246c0.09-0.11,1.539,1.804,4.81,3.561
										c1.629,0.849,3.745,1.602,6.175,1.686c2.409,0.095,5.14-0.469,7.465-2.018l0.5-0.333l-0.031,0.608l-0.003,0.059
										c-0.203,2.782,0.766,5.447,2.264,7.328c1.503,1.903,3.503,3.014,5.252,3.54c1.757,0.522,3.315,0.56,4.302,0.375
										C329.341,115.65,329.585,115.01,329.62,115.053z"/>
								</g>
							</g>
						</g>
					</g>
				</g>
				<g>
					<g>
						<g>
							<g>
								<g>
									<path style="fill:#455A64;" d="M262.868,50.779c0.152,0.008-0.814,2.382-0.152,6.21c0.341,1.882,1.145,4.09,2.706,6.083
										c1.56,1.978,3.9,3.679,6.685,4.553c1.566,0.492,3.172,0.684,4.682,0.617l0.371-0.016l-0.066,0.362
										c-0.424,2.317-0.323,4.558,0.059,6.502c0.396,1.946,1.048,3.607,1.747,4.901c0.345,0.646,0.691,1.228,1.03,1.674
										c0.345,0.44,0.772,0.699,1.149,0.679c0.38-0.009,0.651-0.185,0.768-0.341c0.123-0.158,0.135-0.277,0.159-0.272
										c0.01-0.001,0.039,0.125-0.072,0.33c-0.107,0.201-0.399,0.442-0.844,0.486c-0.457,0.06-0.994-0.233-1.386-0.692
										c-0.392-0.467-0.756-1.029-1.135-1.682c-0.76-1.298-1.473-2.985-1.917-4.981c-0.429-1.994-0.561-4.308-0.138-6.711
										l0.305,0.346c-1.581,0.08-3.26-0.116-4.894-0.629c-2.905-0.912-5.338-2.702-6.943-4.787
										c-1.605-2.1-2.391-4.407-2.688-6.354c-0.309-1.96-0.128-3.576,0.076-4.651c0.119-0.538,0.223-0.951,0.325-1.222
										C262.789,50.913,262.848,50.773,262.868,50.779z"/>
								</g>
							</g>
						</g>
					</g>
				</g>
			</g>
			<g>
				<path style="fill:#263238;" d="M232.721,199.168c0.06-0.1,0.468,0.061,1.194,0.26c0.721,0.191,1.796,0.421,3.069,0.259
					c1.258-0.147,2.702-0.787,3.663-2.109c0.475-0.645,0.81-1.432,0.869-2.265c0.065-0.842-0.143-1.752-0.521-2.649
					c-0.387-0.888-0.891-1.792-1.45-2.418c-0.562-0.64-1.247-0.956-2.024-1.031c-0.768-0.077-1.557,0.08-2.251,0.335
					c-0.661,0.253-1.403,0.652-2.026,0.915c-2.555,1.109-4.05,1.874-4.172,1.722c-0.148-0.188,1.23-1.34,3.668-2.705
					c0.629-0.343,1.198-0.733,2.039-1.131c0.815-0.361,1.775-0.626,2.848-0.572c1.061,0.028,2.268,0.553,3.04,1.426
					c0.786,0.863,1.301,1.801,1.767,2.852c0.445,1.053,0.719,2.223,0.606,3.385c-0.109,1.17-0.606,2.214-1.256,3.018
					c-1.301,1.644-3.228,2.316-4.72,2.33c-1.52,0.034-2.671-0.413-3.38-0.797C232.972,199.593,232.669,199.251,232.721,199.168z"/>
			</g>
		</g>
	</g>
</g>
<g id="Food_1">
	<g>
		<g>
			<path style="fill:#FF725E;" d="M262.089,426.144c0,0-10.555,2.306-15.12-11.318c-4.564-13.624-1.621-25.241,7.814-26.423
				c9.434-1.182,11.626,3.799,12.932,7.35c1.307,3.551,4.501,11.54,4.191,18.219C271.745,417.741,268.387,425.278,262.089,426.144z"
				/>
			<g style="opacity:0.3;">
				<path d="M260.749,417.97c2.068-0.544,3.896-1.763,5.194-3.463l-0.061,0.068l0.084-0.093l0.192-0.213
					c0.126-0.14,0.223-0.315,0.32-0.483l0.111-0.123l-0.096,0.106c0.854-1.541,1.309-3.271,1.324-5.033
					c0.061-1.047-0.03-2.098-0.271-3.119c-0.237-1.026-0.851-1.925-1.719-2.521c-1.012-0.589-2.24-0.673-3.323-0.229
					c-1.069,0.456-1.965,1.241-2.559,2.24c-0.561,0.913-0.909,1.94-1.436,2.875c-0.473,0.973-1.308,1.722-2.327,2.086
					c-0.855,0.231-1.774,0.019-2.645,0.19c-1.552,0.348-2.615,1.781-2.496,3.368c0.152,1.447,1.294,2.608,2.556,3.345
					C255.76,418.223,258.326,418.581,260.749,417.97z"/>
			</g>
			<g style="opacity:0.3;">
				<path d="M257.406,390.297c-2.141-0.049-4.238,0.619-5.956,1.897l0.065-0.072l-0.088,0.098c-0.061,0.068-0.148,0.113-0.226,0.174
					c-0.148,0.121-0.296,0.242-0.439,0.375l-0.111,0.123l0.096-0.106c-1.245,1.245-2.158,2.784-2.654,4.474
					c-0.35,0.983-0.556,2.012-0.612,3.055c-0.051,1.053,0.291,2.087,0.961,2.901c0.813,0.843,1.971,1.26,3.135,1.13
					c1.153-0.144,2.23-0.653,3.074-1.452c0.789-0.722,1.408-1.613,2.171-2.366c0.711-0.811,1.714-1.308,2.789-1.385
					c0.876,0.019,1.714,0.466,2.594,0.542c1.589,0.089,3.004-0.998,3.328-2.555c0.25-1.431-0.516-2.847-1.54-3.916
					C262.26,391.423,259.897,390.377,257.406,390.297z"/>
			</g>
			<g style="opacity:0.3;">
				<path d="M255.098,405.501c-0.395-0.056-0.796-0.04-1.185,0.049l-2.395,0.4c-0.623,0.101-1.331,0.272-1.626,0.846
					c-0.181,0.387-0.104,0.846,0.194,1.153c0.297,0.289,0.706,0.432,1.119,0.392l-0.102-0.015c1.255,0.142,2.525-0.039,3.689-0.528
					c0.331-0.128,0.632-0.325,0.882-0.577c0.249-0.258,0.354-0.624,0.278-0.975C255.826,405.86,255.498,405.574,255.098,405.501z"/>
			</g>
			<path style="fill:#FFFFFF;" d="M248.595,393.652c0.038,0.034-0.365,0.704-0.872,1.865c-1.323,3.046-1.792,6.395-1.358,9.687
				c0.171,1.256,0.376,2.019,0.324,2.034c-0.085-0.166-0.149-0.343-0.189-0.525c-0.146-0.484-0.26-0.978-0.34-1.478
				c-0.561-3.332-0.082-6.756,1.372-9.806c0.216-0.458,0.461-0.901,0.734-1.327C248.352,393.936,248.463,393.784,248.595,393.652z"
				/>
			<path style="fill:#FFFFFF;" d="M251.858,390.759c0.06,0.054-0.307,0.417-0.79,0.783c-0.484,0.365-0.921,0.603-0.969,0.537
				c-0.048-0.066,0.303-0.413,0.786-0.778C251.368,390.935,251.809,390.693,251.858,390.759z"/>
			<path style="fill:#FFFFFF;" d="M249.9,417.491c-0.455-0.326-0.807-0.776-1.012-1.297c-0.289-0.478-0.437-1.028-0.427-1.587
				c0.265,0.468,0.496,0.954,0.691,1.456C249.438,416.519,249.688,416.997,249.9,417.491z"/>
		</g>
		<path style="fill:#FF725E;" d="M185.683,429.108c0,0,2.217,44.993,64.452,45.005c58.896,0.011,60.563-45.005,60.563-45.005
			H185.683z"/>
		<ellipse style="fill:#FF725E;" cx="248.19" cy="429.108" rx="62.507" ry="5.887"/>
		<ellipse style="opacity:0.3;" cx="248.092" cy="429.108" rx="56.975" ry="4.063"/>
		<g>
			<g>
				<path style="fill:#FFFFFF;" d="M229.383,400.616c-3.358,1.564-5.152,5.276-4.289,8.878c1.048,4.496,4.537,11.773,15.843,17.194
					c15.79,7.573,19.5-7.254,19.5-7.254s2.735-9.892-9.269-16.49C244.219,399.104,235.061,397.991,229.383,400.616z"/>
				<g>
					<path style="fill:#263238;" d="M229.383,400.616c-0.004-0.008,0.075-0.05,0.234-0.124c0.188-0.084,0.421-0.188,0.71-0.316
						c0.636-0.247,1.598-0.566,2.878-0.796c2.548-0.477,6.393-0.539,10.911,0.59c2.253,0.568,4.66,1.454,7.076,2.744
						c2.382,1.329,4.825,3.063,6.734,5.523c0.921,1.247,1.72,2.639,2.264,4.176c0.541,1.536,0.809,3.206,0.759,4.9
						c-0.025,0.845-0.102,1.706-0.369,2.549c-0.27,0.82-0.586,1.627-0.997,2.398c-0.795,1.549-1.858,3.009-3.223,4.188
						c-0.663,0.618-1.45,1.061-2.217,1.515c-0.83,0.326-1.635,0.72-2.513,0.842c-1.719,0.427-3.472,0.268-5.135,0.026
						c-0.827-0.156-1.622-0.424-2.422-0.629c-0.796-0.22-1.525-0.602-2.278-0.89c-0.757-0.288-1.467-0.648-2.162-1.016
						c-0.707-0.345-1.378-0.741-2.04-1.13c-5.315-3.088-9.275-7.317-11.229-11.562c-0.491-1.056-0.89-2.095-1.174-3.107
						c-0.286-1.003-0.484-2.003-0.449-2.94c0.04-1.884,0.753-3.409,1.51-4.463c0.788-1.051,1.619-1.667,2.202-2.018
						C229.036,400.722,229.383,400.616,229.383,400.616c0.014,0.028-0.317,0.171-0.877,0.549c-0.558,0.374-1.351,1.005-2.094,2.047
						c-0.712,1.045-1.373,2.535-1.384,4.35c-0.019,0.905,0.181,1.85,0.476,2.843c0.291,0.99,0.695,2.007,1.187,3.04
						c1.963,4.15,5.877,8.278,11.141,11.307c0.657,0.382,1.32,0.77,2.021,1.109c0.69,0.362,1.393,0.715,2.134,0.994
						c0.739,0.28,1.458,0.655,2.235,0.866c0.78,0.196,1.557,0.457,2.359,0.607c1.611,0.23,3.299,0.381,4.933-0.03
						c0.838-0.115,1.6-0.494,2.39-0.8c0.728-0.436,1.478-0.852,2.111-1.445c1.303-1.125,2.33-2.53,3.102-4.03
						c0.399-0.744,0.707-1.53,0.967-2.314c0.248-0.77,0.326-1.6,0.351-2.411c0.052-1.629-0.202-3.24-0.719-4.723
						c-0.521-1.485-1.288-2.833-2.176-4.047c-1.842-2.395-4.222-4.11-6.559-5.435c-2.37-1.287-4.74-2.183-6.961-2.767
						c-4.455-1.161-8.255-1.157-10.785-0.746C230.687,399.971,229.409,400.694,229.383,400.616z"/>
				</g>
			</g>
			<path style="fill:#FF725E;" d="M241.024,420.528c-2.492-4.233-1.304-9.554,2.653-11.883c3.958-2.33,9.186-0.786,11.678,3.447
				c2.492,4.233,1.304,9.554-2.654,11.883C248.745,426.305,243.516,424.762,241.024,420.528z"/>
			<path style="fill:#FFFFFF;" d="M248.255,423.508c1.717,0.007,3.398-0.495,4.831-1.443c-0.16,0.202-0.357,0.372-0.58,0.5
				c-1.032,0.694-2.25,1.057-3.494,1.041C248.755,423.62,248.499,423.586,248.255,423.508z"/>
		</g>
		<g>
			<path style="fill:#FF725E;" d="M272.574,422.207c0,0-2.305-10.555,11.319-15.119c13.624-4.564,25.241-1.619,26.423,7.815
				c1.182,9.434-3.799,11.625-7.351,12.932c-3.551,1.306-11.54,4.5-18.219,4.19C280.977,431.863,273.439,428.505,272.574,422.207z"
				/>
			<g style="opacity:0.3;">
				<path d="M280.748,420.868c0.544,2.068,1.763,3.896,3.463,5.194l-0.068-0.061l0.094,0.084l0.213,0.192
					c0.14,0.126,0.315,0.223,0.483,0.319l0.123,0.111l-0.106-0.096c1.541,0.854,3.271,1.309,5.033,1.324
					c1.047,0.061,2.098-0.03,3.119-0.271c1.026-0.237,1.925-0.851,2.521-1.719c0.589-1.012,0.673-2.24,0.229-3.323
					c-0.456-1.069-1.241-1.965-2.24-2.559c-0.913-0.561-1.94-0.909-2.875-1.436c-0.973-0.473-1.722-1.309-2.086-2.328
					c-0.231-0.855-0.019-1.774-0.19-2.645c-0.347-1.553-1.781-2.615-3.367-2.496c-1.447,0.152-2.608,1.294-3.345,2.556
					C280.495,415.879,280.137,418.445,280.748,420.868z"/>
			</g>
			<g style="opacity:0.3;">
				<path d="M308.421,417.526c0.049-2.141-0.619-4.238-1.897-5.957l0.072,0.065l-0.098-0.088c-0.068-0.061-0.113-0.148-0.174-0.226
					c-0.121-0.148-0.242-0.295-0.375-0.439l-0.123-0.111l0.106,0.096c-1.245-1.246-2.784-2.158-4.474-2.654
					c-0.983-0.351-2.012-0.557-3.055-0.612c-1.053-0.051-2.087,0.291-2.901,0.961c-0.843,0.813-1.261,1.971-1.13,3.134
					c0.144,1.153,0.653,2.23,1.452,3.074c0.722,0.789,1.613,1.408,2.366,2.171c0.811,0.711,1.308,1.714,1.385,2.789
					c-0.02,0.876-0.467,1.714-0.543,2.593c-0.089,1.589,0.997,3.004,2.555,3.329c1.431,0.25,2.847-0.516,3.916-1.54
					C307.295,422.379,308.341,420.017,308.421,417.526z"/>
			</g>
			<g style="opacity:0.3;">
				<path d="M293.217,415.217c0.056-0.395,0.04-0.796-0.049-1.185l-0.4-2.395c-0.101-0.623-0.272-1.331-0.846-1.626
					c-0.387-0.181-0.846-0.104-1.153,0.193c-0.289,0.297-0.432,0.706-0.392,1.119l0.015-0.102c-0.142,1.255,0.039,2.525,0.527,3.689
					c0.129,0.331,0.325,0.632,0.577,0.882c0.258,0.25,0.624,0.354,0.975,0.278C292.858,415.945,293.144,415.617,293.217,415.217z"/>
			</g>
			<path style="fill:#FFFFFF;" d="M305.067,408.715c-0.035,0.038-0.704-0.365-1.865-0.872c-3.046-1.323-6.395-1.792-9.687-1.359
				c-1.256,0.17-2.019,0.376-2.034,0.324c0.166-0.085,0.343-0.149,0.525-0.189c0.484-0.146,0.978-0.26,1.478-0.34
				c3.332-0.561,6.756-0.081,9.806,1.373c0.458,0.216,0.901,0.461,1.327,0.734C304.782,408.472,304.934,408.583,305.067,408.715z"/>
			<path style="fill:#FFFFFF;" d="M307.959,411.977c-0.054,0.06-0.417-0.307-0.783-0.79c-0.366-0.484-0.603-0.921-0.536-0.969
				c0.066-0.048,0.413,0.303,0.778,0.786C307.784,411.488,308.026,411.929,307.959,411.977z"/>
			<path style="fill:#FFFFFF;" d="M281.227,410.018c0.326-0.455,0.776-0.806,1.297-1.011c0.478-0.289,1.028-0.437,1.587-0.427
				c-0.468,0.265-0.954,0.496-1.456,0.691C282.199,409.556,281.722,409.806,281.227,410.018z"/>
		</g>
		<g>
			<g>
				<path style="fill:#FFBE9D;" d="M285.616,417.262c-5.942-3.503-12.545-4.904-18.632-3.964c-4.622,0.713-8.583,2.718-12.103,4.485
					l-1.895,0.946c-2.951,1.443-6.761,3.042-10.042,2.593c-1.875-0.251-3.876-1.198-5.995-2.197c-1.32-0.599-2.641-1.24-4.08-1.796
					c-13.434-5.092-30.792,1.806-38.155,13.197l5.981,0.762l15.685,1.226c0.547,0.043,1.091,0.064,1.64,0.065
					c4.318,0.004,23.965,0.515,34.937,0.579c12.318,0.072,27.268-0.693,27.268-0.693l12.519-0.832l7.572-0.96
					C297.674,427.42,291.248,420.579,285.616,417.262z"/>
				<path style="fill:#263238;" d="M282.374,415.472c-0.153-0.03-0.301-0.076-0.442-0.138c-0.29-0.096-0.7-0.263-1.248-0.437
					c-1.538-0.513-3.119-0.913-4.728-1.198c-2.381-0.412-4.813-0.535-7.23-0.365c-1.423,0.085-2.835,0.285-4.219,0.599
					c-1.491,0.327-2.942,0.788-4.331,1.377c-2.865,1.197-5.335,2.802-7.778,3.964c-2.139,1.103-4.489,1.826-6.926,2.132
					c-1.655,0.162-3.328-0.072-4.853-0.677c-0.413-0.161-0.812-0.349-1.195-0.563c-0.138-0.069-0.268-0.149-0.39-0.24
					c0-0.03,0.561,0.293,1.637,0.689c1.511,0.559,3.152,0.765,4.774,0.599c2.395-0.336,4.701-1.071,6.801-2.168
					c2.417-1.162,4.879-2.784,7.784-4c1.41-0.596,2.883-1.06,4.397-1.383c1.403-0.316,2.835-0.517,4.278-0.599
					c2.432-0.155,4.875-0.008,7.263,0.437c1.615,0.296,3.197,0.723,4.727,1.275c0.542,0.192,0.944,0.383,1.228,0.491
					C282.082,415.322,282.233,415.39,282.374,415.472z"/>
				<path style="fill:#FFFFFF;" d="M264.64,414.723c0,0.096-1.32,0.317-2.78,0.91c-1.459,0.593-2.568,1.293-2.641,1.198
					c1.46-1.279,3.38-2.036,5.407-2.132L264.64,414.723z"/>
				<path style="fill:#FFFFFF;" d="M220.746,416.573c-0.817,0.203-1.652,0.341-2.496,0.413c-0.824,0.174-1.664,0.285-2.509,0.329
					c0.769-0.345,1.602-0.56,2.456-0.635C219.033,416.508,219.896,416.472,220.746,416.573z"/>
				<path style="fill:#FFFFFF;" d="M220.746,419.909c0,0.084-0.508,0.216-1.155,0.293c-0.647,0.078-1.182,0.072-1.195,0
					c-0.013-0.072,0.502-0.216,1.156-0.293C220.205,419.831,220.733,419.825,220.746,419.909z"/>
			</g>
			<g>
				<path style="fill:#263238;" d="M295.19,430.482c-0.007,0.006-0.076-0.057-0.203-0.185c-0.146-0.152-0.33-0.342-0.558-0.579
					c-0.491-0.507-1.203-1.267-2.151-2.215c-1.902-1.874-4.677-4.635-8.711-7.204c-2.01-1.288-4.383-2.419-7.105-3.089
					c-2.709-0.677-5.741-0.931-8.85-0.501c-1.553,0.215-3.116,0.626-4.629,1.255c-1.518,0.627-2.989,1.458-4.5,2.293
					c-1.51,0.835-3.075,1.68-4.774,2.298c-1.695,0.618-3.488,1.037-5.327,1.242c-3.68,0.415-7.363-0.077-10.632-1.28
					c-3.267-1.178-6.245-2.714-9.324-3.365c-3.067-0.681-6.109-0.618-8.863-0.157c-2.762,0.461-5.256,1.314-7.406,2.339
					c-4.322,2.053-7.3,4.622-9.266,6.418c-0.981,0.911-1.707,1.657-2.202,2.159c-0.229,0.235-0.413,0.425-0.56,0.576
					c-0.128,0.128-0.197,0.191-0.204,0.185c-0.007-0.006,0.049-0.081,0.164-0.221c0.137-0.161,0.309-0.362,0.522-0.612
					c0.471-0.527,1.175-1.298,2.14-2.235c1.932-1.848,4.893-4.482,9.247-6.603c2.167-1.059,4.689-1.946,7.493-2.433
					c2.796-0.486,5.896-0.569,9.038,0.114c3.16,0.658,6.17,2.201,9.392,3.353c3.212,1.174,6.799,1.647,10.403,1.243
					c1.799-0.201,3.551-0.609,5.207-1.211c1.656-0.6,3.196-1.427,4.705-2.258c1.51-0.83,3-1.668,4.556-2.306
					c1.555-0.641,3.164-1.057,4.753-1.271c6.404-0.844,12.238,1.08,16.219,3.755c4.051,2.636,6.796,5.451,8.659,7.373
					c0.927,0.972,1.616,1.755,2.083,2.286c0.212,0.251,0.383,0.453,0.52,0.614C295.141,430.402,295.196,430.476,295.19,430.482z"/>
			</g>
			<g>
				<path style="fill:#263238;" d="M292.743,431.362c-0.006,0.007-0.074-0.045-0.202-0.153c-0.148-0.13-0.331-0.29-0.557-0.487
					c-0.512-0.464-1.216-1.102-2.105-1.908c-1.822-1.652-4.554-3.982-8.396-6.122c-3.817-2.078-9.227-3.202-14.907-2.054
					c-2.857,0.533-5.54,2.01-8.307,3.566c-1.392,0.766-2.841,1.526-4.406,2.088c-1.561,0.56-3.203,0.971-4.893,1.179
					c-3.378,0.441-6.764,0.119-9.829-0.831c-3.063-0.961-5.801-2.373-8.562-3.243c-2.752-0.886-5.527-1.143-8.093-0.991
					c-2.57,0.147-4.934,0.673-7.009,1.372c-4.179,1.384-7.129,3.499-8.979,5.099c-0.934,0.8-1.605,1.483-2.061,1.944
					c-0.209,0.213-0.379,0.387-0.517,0.527c-0.117,0.118-0.181,0.176-0.188,0.17c-0.007-0.006,0.044-0.076,0.148-0.205
					c0.128-0.15,0.286-0.335,0.48-0.564c0.433-0.485,1.084-1.194,2.004-2.024c1.819-1.657,4.776-3.848,8.994-5.296
					c2.095-0.731,4.488-1.287,7.102-1.455c2.607-0.174,5.449,0.072,8.263,0.965c2.814,0.875,5.562,2.279,8.567,3.213
					c2.999,0.922,6.309,1.234,9.613,0.802c1.652-0.204,3.257-0.604,4.782-1.15c1.525-0.546,2.949-1.289,4.338-2.049
					c1.39-0.759,2.75-1.537,4.155-2.175c1.4-0.648,2.853-1.124,4.299-1.413c5.814-1.146,11.307,0.04,15.182,2.202
					c3.859,2.204,6.573,4.595,8.356,6.296c0.862,0.837,1.543,1.499,2.04,1.981c0.211,0.212,0.382,0.385,0.521,0.525
					C292.693,431.291,292.749,431.356,292.743,431.362z"/>
			</g>
			<g>
				<path style="fill:#263238;" d="M246.539,432.7c0,0.018-0.131,0.033-0.383,0.044c-0.252,0.005-0.626,0.033-1.106,0.01
					c-0.959-0.048-2.35-0.218-4.009-0.674c-1.661-0.448-3.572-1.184-5.658-2.046c-2.089-0.847-4.367-1.838-6.868-2.467
					c-2.495-0.659-4.976-0.746-7.184-0.433c-2.209,0.313-4.132,0.975-5.645,1.723c-3.052,1.499-4.44,3.184-4.521,3.083
					c-0.013-0.012,0.069-0.117,0.237-0.306c0.169-0.187,0.415-0.47,0.777-0.786c0.703-0.652,1.808-1.524,3.34-2.32
					c1.523-0.806,3.48-1.521,5.743-1.869c2.256-0.348,4.83-0.272,7.381,0.403c2.557,0.644,4.848,1.659,6.926,2.529
					c2.074,0.885,3.95,1.649,5.575,2.135C244.397,432.73,246.547,432.588,246.539,432.7z"/>
			</g>
			<g>
				<path style="fill:#263238;" d="M282.821,432.307c-0.056,0.08-1.477-1.021-3.92-2.523c-1.229-0.73-2.752-1.524-4.563-2.026
					c-1.804-0.513-3.905-0.652-6-0.091c-2.099,0.536-3.96,1.517-5.651,2.383c-1.688,0.886-3.248,1.651-4.627,2.125
					c-1.376,0.484-2.553,0.682-3.365,0.731c-0.815,0.046-1.263-0.02-1.261-0.047c-0.011-0.099,1.824,0.026,4.5-1.03
					c1.337-0.508,2.854-1.294,4.531-2.204c1.683-0.89,3.565-1.905,5.747-2.463c2.179-0.586,4.409-0.424,6.258,0.134
					c1.866,0.545,3.406,1.394,4.626,2.174c1.222,0.787,2.146,1.507,2.781,2.008C282.506,431.983,282.842,432.279,282.821,432.307z"
					/>
			</g>
			<path style="fill:#455A64;" d="M266.163,423.666c0.435,0.665-0.34,1.801-1.724,2.542c-1.384,0.741-2.863,0.811-3.292,0.146
				c0.146,0.263,0.311,0.516,0.495,0.757c0.429,0.665,1.903,0.6,3.286-0.146c1.384-0.746,2.159-1.877,1.73-2.542
				C266.512,424.162,266.346,423.909,266.163,423.666z"/>
			<path style="fill:#455A64;" d="M263.371,424.543c1.103-0.59,2.267-0.752,2.911-0.454c0.01-0.157-0.032-0.313-0.119-0.449
				c-0.429-0.66-1.903-0.595-3.286,0.146c-1.384,0.741-2.159,1.882-1.73,2.542c0.089,0.135,0.219,0.242,0.376,0.308
				C261.546,425.987,262.262,425.138,263.371,424.543z"/>
			<g>
				<path style="fill:#455A64;" d="M252.977,430.378c-0.112,0.844-1.631,1.377-3.4,1.198c-1.769-0.18-3.116-1.03-3.004-1.874
					c-0.072,0.32-0.114,0.644-0.125,0.97c-0.112,0.844,1.235,1.683,3.004,1.868c1.769,0.186,3.301-0.341,3.4-1.198
					C252.912,431.023,252.954,430.701,252.977,430.378z"/>
				<path style="fill:#455A64;" d="M249.821,429.474c1.413,0.15,2.555,0.719,2.899,1.371c0.124-0.133,0.204-0.295,0.231-0.467
					c0.106-0.844-1.235-1.683-3.004-1.868c-1.77-0.186-3.301,0.341-3.4,1.197c-0.023,0.173,0.011,0.348,0.099,0.503
					C247.18,429.636,248.428,429.324,249.821,429.474z"/>
			</g>
		</g>
		<g>
			<path style="fill:#263238;" d="M275.668,432.577c0.001,0.018-0.286,0.05-0.835,0.094c-0.596,0.042-1.395,0.098-2.4,0.169
				c-2.085,0.142-5.105,0.29-8.839,0.421c-7.468,0.272-17.796,0.384-29.194,0.07c-11.402-0.321-21.709-0.995-29.153-1.64
				c-3.722-0.319-6.732-0.614-8.807-0.851c-1.001-0.117-1.796-0.211-2.389-0.28c-0.546-0.07-0.831-0.115-0.829-0.133
				c0.002-0.018,0.291-0.008,0.84,0.029c0.595,0.045,1.394,0.106,2.398,0.183c2.133,0.166,5.132,0.399,8.817,0.686
				c7.447,0.551,17.747,1.166,29.138,1.487c11.388,0.313,21.705,0.26,29.169,0.082c3.732-0.084,6.753-0.176,8.84-0.256
				c1.007-0.03,1.808-0.054,2.404-0.071C275.377,432.556,275.667,432.559,275.668,432.577z"/>
		</g>
		<g>
			<path style="fill:#263238;" d="M185.683,429.108c0.018-0.002,0.007,0.116,0.111,0.299c0.107,0.182,0.35,0.396,0.715,0.597
				c0.731,0.407,1.921,0.791,3.479,1.15c3.12,0.718,7.725,1.347,13.432,1.876c11.419,1.056,27.266,1.703,44.767,1.704
				c17.507-0.001,33.356-0.648,44.775-1.704c5.707-0.529,10.311-1.159,13.431-1.876c1.557-0.359,2.747-0.743,3.478-1.15
				c0.365-0.201,0.608-0.415,0.715-0.597c0.104-0.183,0.093-0.302,0.111-0.299c0,0,0.031,0.119-0.064,0.325
				c-0.098,0.204-0.343,0.441-0.708,0.662c-0.732,0.447-1.925,0.865-3.484,1.257c-3.124,0.783-7.731,1.468-13.443,2.046
				c-11.428,1.152-27.29,1.858-44.81,1.858c-17.514-0.001-33.375-0.706-44.803-1.858c-5.712-0.577-10.32-1.263-13.444-2.046
				c-1.559-0.392-2.752-0.81-3.485-1.257c-0.365-0.221-0.61-0.458-0.709-0.662C185.651,429.228,185.683,429.108,185.683,429.108z"/>
		</g>
	</g>
</g>
<g id="Food_2">
	<g>
		<path style="fill:#E0E0E0;" d="M337.052,441.888l-13.5,24.288c0,0,79.966,3.796,110.463,0l-14.362-24.288H337.052z"/>
		<g style="opacity:0.3;">
			<path d="M412.128,447.79c-0.917-0.694-2.196-0.732-3.375-0.739c-11.513-0.065-23.182-0.062-34.313,2.693
				c-2.781,0.688-5.577,1.554-8.452,1.463c-3.083-0.097-6.114-1.295-9.169-0.896c-2.37,0.31-4.637,1.571-7.004,1.242
				c-0.999-0.139-2-0.56-2.982-0.341c-0.983,0.22-1.653,1.597-0.792,2.093l1.08,5.778c1.043,2.341,3.505,4.071,6.197,4.356
				c2.692,0.285,5.505-0.889,7.079-2.952c1.617,2.858,4.883,4.837,8.331,5.049c3.448,0.211,6.961-1.352,8.962-3.989
				c3.104,2.371,6.895,4.191,10.901,4.182s8.163-2.213,9.39-5.783c0.179-0.52,0.311-1.085,0.717-1.478
				c0.659-0.638,1.744-0.575,2.693-0.562c3.829,0.052,7.648-1.558,10.142-4.278c0.761-0.829,1.417-1.787,1.621-2.863
				C413.359,449.688,413.037,448.477,412.128,447.79z"/>
		</g>
		<g>
			<path style="fill:#AE7461;" d="M426.068,439.943v0.898l-104.845-0.192c-0.527-0.001-0.953-0.401-0.953-0.894l0,0
				c0-0.497,0.434-0.899,0.965-0.894L426.068,439.943z"/>
			<path style="fill:#FFBE9D;" d="M389.017,455.059c4.239-0.089,6.294-3.945,7.776-7.321c2.005,3.249,4.908,6.672,9.286,6.067
				c1.579-0.218,3.013-0.968,4.171-1.996c1.976-1.755,3.047-4.023,3.879-6.378c0.948-2.684,0.972-5.611-0.104-8.253
				c-0.733-1.798-1.893-3.382-3.417-4.684c-1.493-1.275-3.886-2.154-5.46-0.967c-1.606,1.211-0.386,7.585-0.386,7.585
				s-1.689-3.098-2.233-3.916c-0.381-0.573-1.229-1.639-1.919-2.379c-1.637-1.755-4.768-1.723-6.808-0.388
				c-2.04,1.335-3.127,3.642-3.573,5.935c-0.552-2.111-1.13-4.259-2.35-6.108c-1.22-1.849-3.206-3.386-5.518-3.589
				c-2.543-0.224-4.992,1.211-6.539,3.113c-1.547,1.902-2.531,3.445-3.317,5.72c0,0-0.836-3.767-1.273-6.062
				c-0.437-2.295-1.413-4.705-3.541-5.916c-2.132-1.214-5.159-0.799-6.832,0.935c-1.672,1.734-1.386,4.328-0.297,6.457
				c-1.551-0.368-3.147-0.741-4.747-0.265c-0.408,0.122-0.797,0.308-1.129,0.561c-1.715,1.308-1.209,3.306-0.504,4.942
				c2.439,5.661,7.042,10.48,12.779,13.381c2.057,1.04,4.532,1.845,6.693,1.009c2.072-0.801,3.029-2.412,4.162-4.223
				c1.613-2.576,2.746-6.225,2.746-6.225c0.205,3.817,0.46,7.813,3.393,10.823C385.257,454.256,387.083,455.1,389.017,455.059z"/>
			<path style="fill:#FF725E;" d="M375.82,431.803c0.54-1.59,3.996-3.337,6.539-3.113c2.312,0.204,4.298,1.74,5.518,3.589
				c1.22,1.849,1.798,3.997,2.35,6.109c0.446-2.293,1.533-4.6,3.573-5.935c2.04-1.335,5.17-1.367,6.808,0.388
				c0.69,0.74,1.538,1.805,1.919,2.379c0.544,0.818,2.233,3.916,2.233,3.916s-1.22-6.374,0.386-7.585
				c1.574-1.187,3.966-0.308,5.46,0.967c1.525,1.302,2.685,2.886,3.417,4.684c1.076,2.641,1.052,5.569,0.104,8.253
				c-0.832,2.355-1.903,4.622-3.879,6.378c-1.158,1.028-2.592,1.778-4.171,1.996c-4.377,0.605-7.281-2.818-9.286-6.067
				c-1.482,3.376-3.537,7.232-7.776,7.321c-1.934,0.04-3.76-0.803-5.064-2.142c-2.933-3.009-3.188-7.006-3.393-10.823
				c0,0-1.133,3.649-2.746,6.225c-1.134,1.811-2.091,3.421-4.162,4.223c0,0-1.621-0.742,0-2.874c1.621-2.132,3.392-4.09,3.139-5.006
				c-0.253-0.916-3.163,0.878-3.037-1.795c0.127-2.673,1.518-3.912,1.518-3.912s-1.645,0.096-1.265-1.524
				c0.38-1.62,2.277-2.804,2.277-2.804S374.89,434.54,375.82,431.803z"/>
			<g>
				<path style="fill:#FF9A6C;" d="M360.367,432.651c0.009-0.005,0.082,0.096,0.218,0.297c0.153,0.23,0.35,0.525,0.596,0.895
					c0.523,0.785,1.292,1.942,2.328,3.386c1.05,1.429,2.319,3.204,4.062,4.984c0.881,0.857,1.868,1.834,3.237,2.032
					c0.67,0.114,1.383,0.064,2.038-0.199c0.642-0.273,1.242-0.766,1.619-1.374l0.01-0.017l0.003-0.004
					c1.24-1.743,2.296-3.799,3.632-5.85c0.344-0.51,0.685-1.027,1.163-1.495c0.488-0.477,1.152-0.745,1.824-0.831
					c1.342-0.146,2.789,0.35,3.715,1.438c0.935,1.078,1.261,2.555,1.248,3.951c0.007,1.42-0.332,2.808-0.536,4.194
					c-0.208,1.377-0.292,2.828,0.216,4.125c0.252,0.638,0.664,1.22,1.225,1.594c0.557,0.368,1.274,0.537,1.924,0.401
					c0.789-0.148,1.327-0.88,1.774-1.605c0.439-0.74,0.799-1.549,1.13-2.341c0.645-1.593,0.94-3.3,1.514-4.926
					c0.281-0.812,0.65-1.596,1.07-2.326c0.418-0.729,0.933-1.46,1.685-1.934c0.725-0.467,1.694-0.673,2.531-0.323
					c0.825,0.338,1.4,1.054,1.703,1.816c0.308,0.767,0.395,1.557,0.507,2.301c0.109,0.75,0.216,1.491,0.322,2.22
					c0.212,1.457,0.417,2.872,0.615,4.24c0.085,0.67,0.413,1.208,1.038,1.234c0.597,0.047,1.246-0.144,1.82-0.351
					c1.164-0.447,2.124-1.241,2.826-2.143c1.432-1.832,1.688-4.073,1.519-5.885c-0.169-1.845-0.73-3.37-1.221-4.58
					c-0.505-1.211-0.965-2.124-1.266-2.748c-0.139-0.29-0.251-0.523-0.341-0.711c-0.075-0.161-0.109-0.246-0.101-0.25
					c0.008-0.004,0.058,0.072,0.148,0.226c0.102,0.181,0.229,0.407,0.387,0.687c0.331,0.609,0.822,1.509,1.359,2.716
					c0.523,1.207,1.123,2.742,1.324,4.631c0.2,1.852-0.028,4.188-1.517,6.137c-0.729,0.956-1.733,1.804-2.971,2.292
					c-0.624,0.225-1.266,0.439-2.009,0.392c-0.364-0.027-0.777-0.198-1.019-0.527c-0.247-0.321-0.338-0.697-0.402-1.047
					c-0.208-1.371-0.422-2.788-0.643-4.248c-0.11-0.729-0.221-1.469-0.333-2.219c-0.115-0.751-0.207-1.507-0.487-2.189
					c-0.268-0.673-0.774-1.275-1.44-1.543c-0.659-0.276-1.451-0.117-2.083,0.289c-0.639,0.404-1.113,1.059-1.513,1.764
					c-0.407,0.713-0.754,1.454-1.026,2.244c-0.553,1.571-0.848,3.29-1.514,4.95c-0.343,0.82-0.7,1.628-1.165,2.416
					c-0.236,0.39-0.5,0.773-0.834,1.116c-0.322,0.346-0.789,0.635-1.278,0.73c-0.816,0.166-1.65-0.038-2.32-0.477
					c-0.671-0.449-1.138-1.124-1.419-1.835c-0.563-1.448-0.454-2.988-0.242-4.393c0.213-1.418,0.545-2.774,0.54-4.118
					c0.015-1.333-0.292-2.674-1.117-3.63c-0.799-0.957-2.106-1.411-3.284-1.285c-0.588,0.074-1.151,0.3-1.56,0.697
					c-0.416,0.401-0.768,0.915-1.103,1.409c-1.329,2.013-2.4,4.068-3.679,5.839l0.013-0.021c-0.455,0.721-1.102,1.229-1.83,1.538
					c-0.735,0.29-1.528,0.334-2.249,0.204c-0.712-0.119-1.417-0.426-1.945-0.853c-0.551-0.406-1.029-0.859-1.466-1.315
					c-1.749-1.83-2.99-3.627-4.017-5.083c-1.011-1.469-1.749-2.648-2.24-3.456c-0.226-0.384-0.406-0.69-0.546-0.928
					C360.413,432.769,360.358,432.657,360.367,432.651z"/>
			</g>
			<g>
				<path style="fill:#263238;" d="M396.512,440.779c0.153,0.047-0.403,1.721-0.232,3.828c0.144,2.109,0.934,3.685,0.79,3.754
					c-0.1,0.082-1.151-1.471-1.309-3.715C395.584,442.403,396.401,440.711,396.512,440.779z"/>
			</g>
			<g>
				<path style="fill:#263238;" d="M389.437,443.462c-0.141-0.009-0.17-1.303,0.047-2.877c0.214-1.575,0.589-2.813,0.727-2.784
					c0.143,0.029,0,1.3-0.211,2.855C389.786,442.21,389.583,443.472,389.437,443.462z"/>
			</g>
			<g>
				<path style="fill:#263238;" d="M404.8,438.892c0.137-0.045,0.588,0.942,1.008,2.204c0.42,1.263,0.65,2.323,0.513,2.369
					c-0.136,0.045-0.587-0.941-1.008-2.204C404.894,439.998,404.664,438.937,404.8,438.892z"/>
			</g>
			<g>
				<path style="fill:#263238;" d="M381.049,438.937c0.14,0.043-0.001,0.901-0.182,1.946c-0.185,1.044-0.344,1.899-0.49,1.892
					c-0.141-0.006-0.214-0.901-0.023-1.982C380.542,439.712,380.915,438.895,381.049,438.937z"/>
			</g>
			<g>
				<path style="fill:#263238;" d="M371.38,440.998c-0.124-0.056,0.037-0.87,0.274-1.906c0.24-1.047,0.721-1.828,0.853-1.754
					c0.122,0.067-0.113,0.859-0.348,1.881C371.924,440.25,371.521,441.06,371.38,440.998z"/>
			</g>
			<path style="fill:#FF725E;" d="M371.353,445.193c0.745,0,1.349,0.565,1.349,1.263s-0.604,1.263-1.349,1.263
				s-1.349-0.566-1.349-1.263S370.608,445.193,371.353,445.193z"/>
		</g>
		<g>
			<path style="fill:#AE7461;" d="M326.176,452.041v-0.872l101.814,0.187c0.511,0.001,0.925,0.389,0.925,0.868l0,0
				c0,0.483-0.421,0.873-0.937,0.868L326.176,452.041z"/>
			<path style="fill:#FFBE9D;" d="M362.156,437.362c-4.116,0.086-6.112,3.831-7.551,7.109c-1.947-3.155-4.767-6.479-9.017-5.891
				c-1.533,0.212-2.926,0.94-4.05,1.939c-1.919,1.704-2.959,3.907-3.766,6.193c-0.921,2.606-0.944,5.449,0.101,8.014
				c0.712,1.746,1.838,3.284,3.319,4.549c1.45,1.238,3.773,2.092,5.302,0.939c1.56-1.176,0.375-7.366,0.375-7.366
				s1.64,3.009,2.168,3.803c0.37,0.557,1.194,1.591,1.864,2.31c1.59,1.704,4.63,1.674,6.611,0.377
				c1.981-1.297,3.036-3.537,3.469-5.763c0.536,2.05,1.098,4.136,2.283,5.932c1.185,1.796,3.113,3.288,5.358,3.486
				c2.469,0.217,4.847-1.176,6.35-3.023c1.502-1.847,2.458-3.345,3.221-5.555c0,0,0.812,3.658,1.237,5.887
				c0.424,2.229,1.372,4.569,3.439,5.745c2.071,1.178,5.01,0.776,6.634-0.908c1.624-1.684,1.346-4.203,0.288-6.271
				c1.506,0.358,3.056,0.72,4.609,0.257c0.396-0.118,0.774-0.299,1.096-0.545c1.665-1.27,1.174-3.21,0.49-4.799
				c-2.369-5.497-6.838-10.177-12.409-12.994c-1.998-1.01-4.401-1.792-6.5-0.98c-2.012,0.778-2.941,2.342-4.042,4.101
				c-1.566,2.501-2.667,6.045-2.667,6.045c-0.199-3.707-0.447-7.588-3.295-10.51C365.807,438.143,364.035,437.323,362.156,437.362z"
				/>
			<path style="fill:#FF725E;" d="M374.972,459.946c-0.525,1.544-3.881,3.24-6.35,3.023c-2.245-0.198-4.174-1.69-5.358-3.486
				c-1.185-1.796-1.746-3.882-2.283-5.932c-0.433,2.226-1.488,4.467-3.469,5.763c-1.981,1.297-5.021,1.327-6.611-0.377
				c-0.67-0.718-1.494-1.753-1.864-2.31c-0.528-0.794-2.168-3.803-2.168-3.803s1.185,6.19-0.375,7.366
				c-1.529,1.153-3.852,0.299-5.302-0.939c-1.481-1.264-2.607-2.803-3.319-4.549c-1.045-2.565-1.022-5.408-0.101-8.014
				c0.807-2.286,1.848-4.489,3.766-6.193c1.124-0.999,2.517-1.727,4.05-1.939c4.251-0.588,7.07,2.737,9.017,5.891
				c1.439-3.279,3.435-7.023,7.551-7.109c1.878-0.039,3.651,0.78,4.917,2.08c2.848,2.922,3.096,6.803,3.295,10.51
				c0,0,1.101-3.543,2.667-6.045c1.101-1.758,2.03-3.322,4.042-4.1c0,0,1.574,0.721,0,2.791c-1.574,2.07-3.294,3.972-3.048,4.862
				c0.246,0.889,3.072-0.853,2.949,1.744c-0.123,2.596-1.474,3.799-1.474,3.799s1.597-0.093,1.229,1.48
				c-0.369,1.573-2.212,2.723-2.212,2.723S375.875,457.289,374.972,459.946z"/>
			<g>
				<path style="fill:#FF9A6C;" d="M389.978,459.123c-0.009,0.005-0.08-0.093-0.213-0.288c-0.149-0.224-0.341-0.511-0.58-0.869
					c-0.509-0.762-1.255-1.885-2.262-3.287c-1.02-1.388-2.253-3.111-3.945-4.839c-0.856-0.832-1.814-1.779-3.14-1.971
					c-0.65-0.111-1.341-0.062-1.976,0.193c-0.622,0.264-1.204,0.743-1.569,1.332l-0.01,0.017l-0.003,0.004
					c-1.203,1.692-2.228,3.689-3.526,5.681c-0.334,0.495-0.665,0.998-1.13,1.453c-0.475,0.464-1.122,0.725-1.776,0.809
					c-1.306,0.142-2.713-0.34-3.613-1.399c-0.91-1.048-1.226-2.484-1.214-3.842c-0.007-1.38,0.323-2.728,0.521-4.073
					c0.202-1.337,0.283-2.745-0.21-4.002c-0.245-0.618-0.644-1.182-1.187-1.544c-0.539-0.357-1.234-0.52-1.862-0.389
					c-0.762,0.143-1.284,0.851-1.718,1.555c-0.426,0.718-0.775,1.503-1.097,2.272c-0.625,1.546-0.912,3.204-1.47,4.783
					c-0.273,0.789-0.632,1.551-1.04,2.26c-0.406,0.708-0.907,1.419-1.638,1.88c-0.706,0.454-1.649,0.655-2.464,0.314
					c-0.803-0.329-1.363-1.026-1.657-1.768c-0.3-0.746-0.384-1.514-0.492-2.236c-0.106-0.729-0.21-1.448-0.313-2.156
					c-0.205-1.415-0.405-2.788-0.597-4.117c-0.083-0.65-0.398-1.167-1.002-1.193c-0.578-0.046-1.208,0.139-1.764,0.34
					c-1.129,0.433-2.061,1.203-2.743,2.079c-1.389,1.777-1.639,3.952-1.475,5.711c0.163,1.791,0.708,3.272,1.184,4.447
					c0.49,1.176,0.936,2.063,1.228,2.669c0.134,0.281,0.243,0.508,0.331,0.691c0.072,0.157,0.105,0.239,0.098,0.243
					c-0.008,0.004-0.057-0.07-0.145-0.219c-0.1-0.177-0.224-0.396-0.377-0.667c-0.322-0.591-0.799-1.465-1.321-2.637
					c-0.509-1.172-1.091-2.662-1.287-4.498c-0.195-1.798,0.026-4.069,1.473-5.964c0.709-0.929,1.684-1.754,2.887-2.228
					c0.606-0.219,1.23-0.427,1.953-0.382c0.354,0.026,0.758,0.193,0.994,0.514c0.241,0.313,0.329,0.679,0.392,1.019
					c0.202,1.331,0.41,2.708,0.625,4.125c0.106,0.708,0.214,1.427,0.324,2.155c0.111,0.729,0.201,1.462,0.472,2.124
					c0.26,0.653,0.751,1.235,1.395,1.495c0.638,0.267,1.404,0.113,2.016-0.28c0.619-0.391,1.078-1.026,1.467-1.711
					c0.395-0.692,0.732-1.411,0.996-2.178c0.537-1.525,0.823-3.195,1.47-4.807c0.333-0.797,0.679-1.581,1.132-2.347
					c0.23-0.379,0.486-0.751,0.811-1.085c0.313-0.337,0.768-0.618,1.245-0.711c0.795-0.162,1.606,0.037,2.258,0.465
					c0.653,0.437,1.107,1.094,1.381,1.786c0.547,1.408,0.441,2.905,0.235,4.27c-0.207,1.378-0.529,2.694-0.524,3.998
					c-0.015,1.293,0.283,2.594,1.083,3.521c0.774,0.928,2.042,1.367,3.183,1.246c0.57-0.071,1.115-0.291,1.511-0.675
					c0.404-0.389,0.745-0.887,1.07-1.367c1.29-1.955,2.33-3.95,3.574-5.67l-0.013,0.021c0.443-0.701,1.072-1.195,1.781-1.496
					c0.715-0.282,1.486-0.324,2.187-0.198c0.692,0.115,1.378,0.415,1.891,0.83c0.535,0.395,1,0.835,1.424,1.278
					c1.698,1.778,2.903,3.523,3.9,4.937c0.981,1.427,1.698,2.572,2.174,3.357c0.218,0.372,0.393,0.669,0.529,0.902
					C389.934,459.008,389.987,459.117,389.978,459.123z"/>
			</g>
			<g>
				<path style="fill:#263238;" d="M354.878,451.23c-0.152-0.047,0.384-1.673,0.218-3.716c-0.139-2.046-0.903-3.577-0.759-3.646
					c0.101-0.082,1.125,1.426,1.279,3.607C355.786,449.655,354.989,451.297,354.878,451.23z"/>
			</g>
			<g>
				<path style="fill:#263238;" d="M361.748,448.625c0.141,0.009,0.172,1.266-0.038,2.795c-0.208,1.53-0.575,2.732-0.714,2.703
					c-0.143-0.029-0.007-1.263,0.198-2.773C361.402,449.84,361.603,448.615,361.748,448.625z"/>
			</g>
			<g>
				<path style="fill:#263238;" d="M346.829,453.062c-0.136,0.045-0.578-0.912-0.986-2.138c-0.408-1.226-0.628-2.257-0.491-2.303
					c0.136-0.045,0.578,0.912,0.986,2.138C346.745,451.986,346.965,453.017,346.829,453.062z"/>
			</g>
			<g>
				<path style="fill:#263238;" d="M369.894,453.019c-0.14-0.043-0.007-0.877,0.169-1.891c0.18-1.014,0.337-1.843,0.484-1.836
					c0.141,0.006,0.215,0.876,0.029,1.926C370.393,452.268,370.028,453.061,369.894,453.019z"/>
			</g>
			<g>
				<path style="fill:#263238;" d="M379.283,451.017c0.124,0.056-0.028,0.847-0.259,1.853c-0.233,1.017-0.704,1.775-0.835,1.702
					c-0.122-0.067,0.102-0.836,0.33-1.829C378.747,451.742,379.142,450.955,379.283,451.017z"/>
			</g>
			<path style="fill:#FF725E;" d="M379.309,446.943c-0.724,0-1.31-0.549-1.31-1.227s0.587-1.227,1.31-1.227s1.31,0.549,1.31,1.227
				S380.033,446.943,379.309,446.943z"/>
		</g>
		<path style="fill:#E0E0E0;" d="M323.552,466.176c0,0,17.908,4.336,28.68,4.461c10.772,0.124,53.663,0,53.663,0
			s17.519-1.716,28.12-4.461C397.417,468.338,360.593,468.312,323.552,466.176z"/>
		<path style="fill:#E0E0E0;" d="M351.276,470.615c0.209,0.005,0,3.455,0,3.455h54.619v-4.403L351.276,470.615z"/>
		<g>
			<path style="fill:#263238;" d="M434.015,466.176c0.001,0.009-0.095,0.026-0.282,0.05c-0.217,0.024-0.491,0.055-0.833,0.093
				c-0.771,0.074-1.844,0.178-3.208,0.309c-2.785,0.281-6.825,0.561-11.818,0.889c-9.989,0.611-23.815,1.036-39.084,0.978
				c-15.275-0.078-29.095-0.601-39.086-1.155c-4.996-0.271-9.035-0.551-11.825-0.761c-1.364-0.116-2.439-0.207-3.21-0.272
				c-0.342-0.034-0.617-0.062-0.834-0.084c-0.188-0.022-0.283-0.037-0.283-0.046c0.001-0.009,0.098-0.011,0.287-0.007
				c0.218,0.008,0.494,0.019,0.837,0.032c0.773,0.042,1.849,0.1,3.216,0.174c2.833,0.143,6.864,0.346,11.83,0.596
				c9.992,0.46,23.805,0.924,39.07,1.002c15.259,0.058,29.074-0.309,39.062-0.825c4.992-0.28,9.034-0.504,11.822-0.723
				c1.366-0.09,2.442-0.161,3.215-0.211c0.344-0.017,0.619-0.031,0.837-0.042C433.917,466.165,434.014,466.167,434.015,466.176z"/>
		</g>
		<g>
			<path style="fill:#263238;" d="M405.895,470.923c0,0.144-12.228,0.26-27.308,0.26c-15.086,0-27.311-0.117-27.311-0.26
				s12.225-0.26,27.311-0.26C393.667,470.662,405.895,470.779,405.895,470.923z"/>
		</g>
	</g>
</g>
</svg>
